<svg width="100" height="100" viewBox="0 0 100 100" fill="none" xmlns="http://www.w3.org/2000/svg">
<path d="M50 85C69.33 85 85 69.33 85 50C85 30.67 69.33 15 50 15C30.67 15 15 30.67 15 50C15 69.33 30.67 85 50 85Z" fill="#001FAB"/>
<path d="M41.4923 78.1292L44.4431 78.8723L44.6908 77.9354L42.7954 77.4508L43.3662 75.2215L44.9708 75.6308L45.2077 74.7046L43.6031 74.2954L44.1308 72.2169L45.9938 72.6908L46.2308 71.7431L43.3123 71L41.4923 78.1292Z" fill="white"/>
<path d="M31.3658 61.4347L25.1749 65.3864L25.7659 66.3123L31.9568 62.3607L31.3658 61.4347Z" fill="white"/>
<path d="M42.3862 70.6662C42.3413 70.6339 42.2898 70.6118 42.2354 70.6016L39.6077 69.417L36.5923 76.1262L37.5939 76.5678L38.6708 74.1447L40.2862 74.877C40.4219 74.961 40.5854 74.9878 40.7409 74.9514C40.8963 74.9151 41.031 74.8186 41.1154 74.6831C41.1461 74.6334 41.168 74.5788 41.18 74.5216L42.5477 71.4955C42.5922 71.4306 42.6234 71.3576 42.6394 71.2806C42.6553 71.2036 42.6558 71.1242 42.6408 71.047C42.6258 70.9698 42.5955 70.8964 42.5518 70.831C42.5081 70.7656 42.4518 70.7096 42.3862 70.6662ZM40.297 73.8324L39.08 73.2831L40.2216 70.7308L41.4493 71.2801L40.297 73.8324Z" fill="white"/>
<path d="M27.0185 60.4246L26.1677 60.8123L26.5015 61.5554L24.6277 62.3846L24.0354 61.0816L29 58.8523L29.5923 60.1554L28.4077 60.6939L28.86 61.6954L30.2923 61.06C30.443 61.0126 30.5697 60.909 30.6459 60.7705C30.7222 60.6321 30.7421 60.4697 30.7015 60.3169C30.683 60.2637 30.6577 60.213 30.6262 60.1662L29.7 58.0769C29.655 57.9246 29.5517 57.7962 29.4126 57.7196C29.2735 57.643 29.1097 57.6243 28.9569 57.6677L28.8062 57.7431L23.3354 60.2308C23.2608 60.2507 23.1909 60.2853 23.1298 60.3325C23.0687 60.3797 23.0176 60.4386 22.9795 60.5058C22.9414 60.5729 22.9171 60.647 22.9079 60.7237C22.8988 60.8003 22.905 60.8781 22.9262 60.9523C22.9383 61.0061 22.9602 61.0572 22.9908 61.1031L23.9385 63.2569C23.9596 63.332 23.9953 63.4021 24.0435 63.4633C24.0918 63.5245 24.1517 63.5755 24.2197 63.6135C24.2877 63.6516 24.3626 63.6758 24.44 63.6848C24.5174 63.6938 24.5958 63.6875 24.6708 63.6662C24.727 63.6512 24.7813 63.6295 24.8323 63.6016L27.8046 62.2554L27.0185 60.4246Z" fill="white"/>
<path d="M37.54 68.1569L36.6784 67.4354L33.9538 69.2985L35.343 66.2939L34.503 65.6154L32.2307 62.88L31.4877 63.5046L32.263 64.4308L27.3846 68.5339L28.0846 69.3739L32.963 65.2708L33.7492 66.1969L34.4169 65.6262L33.1892 68.5662C33.1892 68.5662 33.0707 68.8569 32.8984 69.32C32.8027 69.5709 32.6912 69.8155 32.5646 70.0523L30.8415 72.0769L31.6815 72.7985L33.4261 70.7308C34.0507 70.3215 34.503 70.0308 34.783 69.88L37.5184 68.1569H37.54Z" fill="white"/>
<path d="M53.8985 71.7539L53.22 75.9215C53.22 76.04 53.22 76.1477 53.22 76.2554C53.2089 76.1459 53.1873 76.0377 53.1554 75.9323L51.5508 72.0769L50.4739 72.1954L51.3246 79.4969L52.4016 79.3677L51.9816 75.7708C51.9479 75.5058 51.8976 75.2432 51.8308 74.9846L53.22 78.5385H53.7693L54.2862 74.7046C54.2702 74.97 54.2702 75.2361 54.2862 75.5015L54.7062 79.0985L55.7831 78.98L54.9323 71.6785L53.8985 71.7539Z" fill="white"/>
<path d="M67.9524 68.9432C68.0019 68.8322 68.0141 68.708 67.9869 68.5895C67.9597 68.471 67.8946 68.3645 67.8016 68.2862L66.0893 66.2401C66.0485 66.1734 65.9949 66.1154 65.9316 66.0695C65.8683 66.0236 65.7965 65.9907 65.7204 65.9727C65.6443 65.9546 65.5654 65.9519 65.4883 65.9645C65.4111 65.9771 65.3372 66.0049 65.2708 66.0463L65.1416 66.1539L62.9124 68.0278L67.6508 73.6493L68.4908 72.9386L64.3554 68.0493L65.4324 67.1555L66.9293 68.9324L66.1108 69.6324L66.5308 70.1386L69.6647 71.9586L70.537 71.2262L67.4677 69.4601C67.658 69.3171 67.8219 69.1422 67.9524 68.9432Z" fill="white"/>
<path d="M66.6923 64.4738L71.4523 70.2353L72.1415 69.4061L71.2153 68.3292L72.0876 67.2523L73.3046 67.963L73.9938 67.123L67.4461 63.58L66.6923 64.4738ZM71.2692 66.8107L70.58 67.64L68.3615 65.12L71.2692 66.8107Z" fill="white"/>
<path d="M76.6969 62.5785L70.2354 59.0354L69.7184 59.9831L73.2184 61.9108C73.3827 61.9865 73.5518 62.0513 73.7246 62.1046L68.9 61.4585L68.4369 62.3092L74.8984 65.8416L75.4154 64.9046L71.8292 62.9339C71.665 62.8581 71.4959 62.7934 71.323 62.74L76.223 63.4292L76.6969 62.5785Z" fill="white"/>
<path d="M56.3969 71.14L57.3123 78.5385L58.3892 78.1938L58.1631 76.8046L59.4769 76.3738L60.1123 77.6338L61.1892 77.3L57.4954 70.7846L56.3969 71.14ZM57.98 75.9L57.4631 72.5831L59.0031 75.5661L57.98 75.9Z" fill="white"/>
<path d="M62.1901 68.447L61.2582 69.0284L65.1459 75.2597L66.0778 74.6783L62.1901 68.447Z" fill="white"/>
<path d="M48.1584 75.157L47.5338 71.9262L46.4569 71.8293L47.1784 74.9739L47.3938 75.7493C47.4596 76.0081 47.51 76.2706 47.5446 76.5354L47.3292 79.2277L48.4061 79.3247L48.6215 76.6324C48.88 75.9216 49.0846 75.4262 49.2246 75.1354L50.4308 72.1524L49.2784 72.077L48.1584 75.157Z" fill="white"/>
<path d="M84.4615 47.5984C78.4493 48.49 72.3606 48.7535 66.2938 48.3846C53.3707 47.5769 43.0646 42.7415 28.3538 43C24.1361 43.1019 19.9349 43.5667 15.7969 44.3892C15.6677 45.8215 15.5815 47.2215 15.5384 48.6969C15.4954 50.1723 15.5384 51.3569 15.5384 52.7031C19.8534 51.8819 24.2312 51.4351 28.623 51.3677C46.0154 51.0769 55.0507 57.2046 72.443 57C76.3846 56.9377 80.3158 56.5777 84.203 55.9231C84.3323 54.5769 84.4184 53.2631 84.4615 51.9169C84.5046 50.5707 84.5154 49.0308 84.4615 47.5984ZM24.3477 48.1261L17.6707 48.9338V47.06L24.3477 46.2307V48.1261ZM34.2338 48.1261H27.5569V46.2307H34.2338V48.1261ZM44.3892 49.7307L37.7123 48.6538V46.7908L44.3892 47.8677V49.7307ZM54.0061 51.3354L47.3292 50.2584V48.3846L54.0061 49.4615V51.3354ZM63.8923 53.2092L57.2154 52.1323V50.2692L63.8923 51.3461V53.2092ZM74.0477 53.7369H67.3707V51.8738H74.0477V53.7369ZM83.923 52.94L77.2461 53.7369V51.8738L83.923 51.0661V52.94Z" fill="#EFBF0C"/>
<path d="M36.8723 30.2385C36.8955 29.6793 36.72 29.1299 36.3769 28.6878L35.6769 27.6108L35.0308 28.0524L35.6984 29.0324C35.9049 29.3022 36.0216 29.6298 36.0323 29.9693C36.0262 30.1078 35.9868 30.2427 35.9175 30.3627C35.8481 30.4827 35.7508 30.5842 35.6338 30.6585L35.2569 30.917L35.16 31.0139C35.025 31.1245 34.8599 31.192 34.6861 31.2078C34.4426 31.2057 34.2028 31.1467 33.9861 31.0355L33.5231 30.8308L33.2215 30.7016L32.5538 31.3155L32.8338 31.3908L33.2215 31.5308C33.3767 31.6051 33.5277 31.6877 33.6738 31.7785C33.8305 31.8758 33.972 31.9955 34.0938 32.1339C34.3107 32.3579 34.4697 32.6315 34.5569 32.9308C34.6292 33.2398 34.6028 33.5637 34.4815 33.857C34.3843 34.1033 34.2538 34.3352 34.0938 34.5462C33.9611 34.7204 33.8134 34.8825 33.6523 35.0308L34.2554 35.677C34.4498 35.504 34.6233 35.3088 34.7723 35.0955C34.9456 34.8565 35.0869 34.5958 35.1923 34.3201C35.3301 33.9787 35.389 33.6105 35.3646 33.2431C35.3342 32.827 35.2128 32.4227 35.0092 32.0585C35.1176 32.0266 35.2223 31.9833 35.3215 31.9293C35.4196 31.8772 35.5102 31.812 35.5908 31.7355L35.7092 31.6385L36.1292 31.3478C36.325 31.2265 36.4926 31.0648 36.6207 30.8735C36.7489 30.6822 36.8347 30.4657 36.8723 30.2385Z" fill="white"/>
<path d="M38.0159 31.1244L37.4387 31.5205L37.8348 32.0977L38.412 31.7016L38.0159 31.1244Z" fill="white"/>
<path d="M36.9729 31.8313L36.3956 32.2272L36.7915 32.8045L37.3688 32.4086L36.9729 31.8313Z" fill="white"/>
<path d="M35.5416 23.1904L34.8654 23.5698L38.4428 29.9472L39.119 29.5679L35.5416 23.1904Z" fill="white"/>
<path d="M30.2815 35.3C30.0465 34.9781 29.7454 34.71 29.3985 34.5138C29.1314 34.3497 28.8545 34.2023 28.5692 34.0723L28.0954 33.8677L27.6538 34.6H27.7185C27.9176 34.652 28.1121 34.7204 28.3 34.8046C28.5466 34.894 28.7845 35.0058 29.0108 35.1384C29.2156 35.2531 29.3894 35.4161 29.517 35.6131C29.6446 35.8102 29.7222 36.0354 29.7431 36.2692C29.8007 36.7675 29.6826 37.2702 29.4092 37.6908C29.1691 38.1204 28.789 38.4549 28.3323 38.6384C28.1164 38.7264 27.8825 38.7616 27.6503 38.741C27.418 38.7204 27.194 38.6446 26.9969 38.52C26.774 38.3815 26.5616 38.2267 26.3615 38.0569C26.2108 37.9169 26.0492 37.7769 25.9092 37.6261H25.8446L25.4031 38.3692L25.7692 38.6923C26.0165 38.8841 26.2755 39.0603 26.5446 39.22C26.8703 39.4316 27.2375 39.5711 27.6215 39.6292C27.9548 39.6747 28.2942 39.6415 28.6123 39.5323C28.928 39.4193 29.2174 39.2435 29.4631 39.0154C29.7234 38.7676 29.9481 38.4849 30.1308 38.1754C30.3223 37.8642 30.4674 37.5268 30.5615 37.1738C30.6208 36.8571 30.6208 36.5321 30.5615 36.2154C30.538 35.8931 30.4424 35.5802 30.2815 35.3Z" fill="white"/>
<path d="M68.8587 29.2729L68.396 29.7981L68.9212 30.2608L69.384 29.7356L68.8587 29.2729Z" fill="white"/>
<path d="M27.1418 29.8945L26.6363 30.4825L32.1808 35.2499L32.6864 34.6619L27.1418 29.8945Z" fill="white"/>
<path d="M67.9197 28.4515L67.457 28.9768L67.9824 29.4395L68.445 28.9141L67.9197 28.4515Z" fill="white"/>
<path d="M26.3615 35.4831L25.78 35.1169L25.4138 35.72L26.0061 36.0754L26.3615 35.4831Z" fill="white"/>
<path d="M49.1475 27.492L49.1352 28.1919L49.8351 28.2042L49.8474 27.5043L49.1475 27.492Z" fill="white"/>
<path d="M66.5974 34.3439L66.0647 34.798L66.5188 35.3307L67.0515 34.8766L66.5974 34.3439Z" fill="white"/>
<path d="M73.8001 33.7923C73.6154 33.7607 73.4258 33.8033 73.2724 33.9108C73.1426 33.9929 73.047 34.1191 73.0031 34.2662C72.9518 34.4349 72.9158 34.6079 72.8954 34.7831L72.7016 36.4416C72.6809 36.808 72.6121 37.17 72.497 37.5185C72.439 37.6905 72.3301 37.8407 72.1847 37.9493C72.1031 38.0031 72.0108 38.0387 71.9141 38.0536C71.8174 38.0685 71.7187 38.0623 71.6247 38.0354C71.3609 37.9208 71.1443 37.7194 71.0108 37.4646L69.9339 35.7846L69.7508 35.5693C69.6601 35.4746 69.5924 35.3602 69.5532 35.235C69.514 35.1098 69.5042 34.9773 69.5247 34.8477C69.5803 34.5563 69.7413 34.2956 69.977 34.1154L70.4078 33.7493L69.8908 33.1462L69.4601 33.5123C69.3575 33.62 69.2337 33.7052 69.0965 33.7627C68.9594 33.8201 68.8118 33.8486 68.6631 33.8462C68.5339 33.8442 68.4068 33.8131 68.2913 33.7553C68.1757 33.6975 68.0746 33.6145 67.9954 33.5123L67.6724 33.1785L67.4139 32.9523C67.3122 32.8693 67.2311 32.7639 67.1769 32.6444C67.1227 32.5248 67.097 32.3943 67.1016 32.2631C67.1133 31.9691 67.232 31.6895 67.4354 31.477L67.8124 31.057L67.2201 30.5293L66.8431 30.96C66.6614 31.1972 66.3953 31.3553 66.1001 31.4016C65.9714 31.4174 65.8409 31.4043 65.7179 31.3633C65.595 31.3223 65.4827 31.2545 65.3893 31.1646L64.9801 30.7985L64.8939 30.7339C64.7749 30.6721 64.6717 30.5836 64.5924 30.4754C64.5071 30.3406 64.4384 30.196 64.3878 30.0446C64.3416 29.8746 64.3056 29.702 64.2801 29.5277C64.2801 29.3016 64.2801 29.1185 64.2154 28.9677C64.1508 28.817 64.2154 28.6016 64.1293 28.397C64.1006 28.2121 64.05 28.0314 63.9785 27.8585C63.9165 27.6896 63.8254 27.5329 63.7093 27.3954C63.5829 27.2517 63.4291 27.1345 63.257 27.0508C63.0836 26.9339 62.8874 26.8553 62.6813 26.82C62.4752 26.7847 62.264 26.7936 62.0616 26.8462C61.8962 26.8908 61.7414 26.9681 61.6064 27.0735C61.4713 27.1789 61.3588 27.3104 61.2754 27.46C61.2058 27.6191 61.1834 27.7948 61.2108 27.9662C61.2559 28.2146 61.3394 28.4544 61.4585 28.677C61.5516 28.8477 61.6344 29.0239 61.7062 29.2046C61.7405 29.2751 61.7583 29.3524 61.7583 29.4308C61.7583 29.5092 61.7405 29.5865 61.7062 29.657C61.5447 29.98 61.2108 30.1093 60.6939 30.0554C59.9669 29.9166 59.2657 29.666 58.6154 29.3123C58.091 29.1044 57.6253 28.7717 57.2585 28.3431C57.156 28.1822 57.1015 27.9954 57.1015 27.8046C57.1015 27.6139 57.156 27.427 57.2585 27.2662C57.3555 27.0714 57.4671 26.8842 57.5924 26.7062L57.8508 26.3293L57.1293 25.9739L56.8924 26.34C56.756 26.5433 56.6337 26.7555 56.5262 26.9754C56.3738 27.2388 56.2882 27.5356 56.2769 27.8397C56.2656 28.1438 56.3291 28.4461 56.4616 28.72C56.9067 29.3471 57.5349 29.8211 58.2601 30.077C59.0979 30.557 60.0411 30.8233 61.0062 30.8523C61.3131 30.853 61.6138 30.7663 61.8732 30.6023C62.1326 30.4383 62.3399 30.2037 62.4708 29.9262C62.5243 29.7617 62.5243 29.5845 62.4708 29.42C62.4282 29.1808 62.3521 28.9488 62.2447 28.7308L62.0078 28.2139C61.9306 28.0844 61.9038 27.9311 61.9324 27.7831C61.9652 27.7306 62.0093 27.6859 62.0614 27.6524C62.1136 27.6189 62.1725 27.5973 62.2339 27.5893C62.425 27.5687 62.6176 27.6102 62.7831 27.7077C62.9152 27.7634 63.0276 27.8571 63.1062 27.977C63.1889 28.1065 63.2507 28.2482 63.2893 28.397C63.3613 28.5935 63.4189 28.7951 63.4616 29V29.5493C63.4616 29.7323 63.5154 29.9154 63.5478 30.1093C63.5838 30.3019 63.6416 30.4897 63.7201 30.6693C63.7998 30.8428 63.9011 31.0057 64.0216 31.1539C64.1402 31.2719 64.2742 31.3734 64.4201 31.4554L64.937 31.9077C65.1084 32.049 65.306 32.1551 65.5185 32.22C65.7288 32.2862 65.9544 32.2862 66.1647 32.22C66.1312 32.4438 66.1649 32.6724 66.2616 32.877C66.3557 33.0793 66.4872 33.262 66.6493 33.4154L67.0585 33.7708L67.4139 34.2016C67.5654 34.3611 67.7441 34.4924 67.9416 34.5893C68.1418 34.6877 68.3675 34.7216 68.5878 34.6862C68.5193 34.8998 68.5193 35.1295 68.5878 35.3431C68.6448 35.5544 68.7437 35.7522 68.8785 35.9246L69.1693 36.2693L70.2462 37.9493C70.3894 38.1767 70.5675 38.3802 70.7739 38.5523C70.9557 38.7026 71.1693 38.8094 71.3985 38.8646C71.5972 38.9078 71.8029 38.9078 72.0016 38.8646C72.2059 38.8092 72.4016 38.7258 72.5831 38.617C72.7885 38.4747 72.9581 38.2866 73.0785 38.0677C73.2182 37.7727 73.3057 37.4557 73.337 37.1308L73.5524 35.4616C73.5524 35.3108 73.5524 35.1385 73.617 34.977C73.6117 34.8662 73.6504 34.7578 73.7247 34.6754C73.7634 34.6572 73.8057 34.6477 73.8485 34.6477C73.8913 34.6477 73.9336 34.6572 73.9724 34.6754L74.3062 34.8693L76.7939 36.3985L77.5693 35.8923L74.7155 34.1477C74.4333 33.9769 74.1236 33.8566 73.8001 33.7923Z" fill="white"/>
<path d="M67.3849 35.2121L66.8529 35.6671L67.3079 36.1991L67.8399 35.7441L67.3849 35.2121Z" fill="white"/>
<path d="M74.6831 33.1461L74.2847 33.3938L77.8601 35.6877L78.2693 35.4507L74.6831 33.1461Z" fill="white"/>
<path d="M52.2268 27.0948L52.1252 27.7874L52.8178 27.8891L52.9194 27.1965L52.2268 27.0948Z" fill="white"/>
<path d="M52.6708 28.8599L53.36 28.9569L53.4569 28.2784L52.7785 28.1707L52.6708 28.8599Z" fill="white"/>
<path d="M50.4082 27.514L50.3959 28.2139L51.0958 28.2263L51.1081 27.5264L50.4082 27.514Z" fill="white"/>
<path d="M53.6057 27.311L53.5065 27.993L54.1885 28.0923L54.2878 27.4103L53.6057 27.311Z" fill="white"/>
<path d="M53.9739 24.8323C53.9406 25.1697 53.8054 25.489 53.5862 25.7476C53.4863 25.8477 53.3633 25.9217 53.2281 25.963C53.0929 26.0043 52.9495 26.0117 52.8108 25.9846L52.4016 25.9199H52.2831H52.1862H52.0569C51.926 25.923 51.796 25.8965 51.6767 25.8424C51.5574 25.7884 51.4518 25.7081 51.3677 25.6076C51.187 25.3747 51.0988 25.0832 51.12 24.7892V24.1969H50.3231V24.7676C50.3437 25.0652 50.2471 25.3589 50.0539 25.5861C49.9646 25.6809 49.8557 25.7551 49.7348 25.8035C49.6139 25.8519 49.4839 25.8732 49.3539 25.8661H48.6862C48.5538 25.8713 48.4218 25.848 48.2992 25.7979C48.1766 25.7477 48.0662 25.6718 47.9754 25.5753C47.6397 25.3254 47.3422 25.0279 47.0923 24.6923C46.8843 24.3439 46.5868 24.0576 46.2308 23.863C45.8967 23.7 45.5185 23.6508 45.1539 23.723C44.9303 23.7599 44.7173 23.8444 44.5292 23.9707C44.37 24.0886 44.2378 24.2391 44.1416 24.4123C44.0486 24.5869 43.9867 24.7764 43.9585 24.9723C43.9372 25.1835 43.9372 25.3964 43.9585 25.6076C44.0123 25.9106 43.959 26.2228 43.8077 26.4907C43.737 26.5949 43.6445 26.6825 43.5367 26.7476C43.4289 26.8127 43.3082 26.8536 43.1831 26.8676L42.8062 26.9323L42.6662 26.9861C42.5239 27.0539 42.3654 27.0798 42.209 27.0607C42.0526 27.0416 41.9049 26.9784 41.7831 26.8784C41.6671 26.7896 41.5685 26.68 41.4923 26.5553C41.4091 26.4194 41.3405 26.275 41.2877 26.1246L39.4569 21.3646L38.6923 21.6338L40.5339 26.4799C40.7033 27.0041 41.0448 27.4557 41.5031 27.7615C41.7198 27.8894 41.9641 27.963 42.2154 27.9761C42.4666 27.9893 42.7174 27.9415 42.9462 27.8369L43.14 27.7615C43.4766 27.708 43.799 27.5872 44.0877 27.4061C44.2829 27.2629 44.4356 27.0693 44.5292 26.8461C44.7304 27.0232 44.9646 27.1587 45.2185 27.2446C45.5063 27.3407 45.8137 27.3629 46.1123 27.3092C46.2928 27.2874 46.4659 27.2248 46.6185 27.1261C46.7515 27.0441 46.8713 26.9424 46.9739 26.8246C47.0619 26.7168 47.1344 26.5971 47.1892 26.4692C47.2434 26.3449 47.2831 26.2148 47.3077 26.0815C47.5144 26.3343 47.7758 26.5369 48.0723 26.6738C48.2932 26.7669 48.5355 26.7967 48.7723 26.7599H48.9231H49.5046C49.7278 26.7624 49.9486 26.7145 50.1508 26.6199C50.3592 26.5362 50.5361 26.3893 50.6569 26.1999C50.7669 26.3968 50.9421 26.5491 51.1523 26.6307C51.3498 26.7317 51.5662 26.7904 51.7877 26.803H52.1646L52.6923 26.8461C52.9356 26.894 53.1867 26.885 53.4258 26.8196C53.665 26.7542 53.8858 26.6342 54.0708 26.4692C54.4708 26.0753 54.7188 25.5528 54.7708 24.9938L54.9431 23.7661L54.1785 23.6584L53.9739 24.8323ZM46.4354 26.0492C46.3724 26.1335 46.2934 26.2045 46.2028 26.2581C46.1122 26.3117 46.0119 26.3469 45.9077 26.3615C45.7689 26.3888 45.6257 26.3835 45.4893 26.3461C45.3529 26.3088 45.227 26.2403 45.1216 26.1461C44.8954 25.961 44.7426 25.7014 44.6908 25.4138C44.6475 25.2016 44.6901 24.9808 44.8092 24.7999C44.9692 24.6188 45.1929 24.5065 45.4338 24.4864C45.6746 24.4663 45.9138 24.5401 46.1016 24.6923C46.3247 24.9006 46.4725 25.1771 46.5216 25.4784C46.5383 25.5757 46.5355 25.6753 46.5133 25.7714C46.4911 25.8676 46.45 25.9583 46.3923 26.0384L46.4354 26.0492Z" fill="white"/>
</svg>
