<svg width="386" height="334" viewBox="0 0 386 334" fill="none" xmlns="http://www.w3.org/2000/svg">
<g clip-path="url(#clip0)">
<path opacity="0.5" d="M193 333.5C299.591 333.5 386 301.309 386 261.6C386 221.891 299.591 189.7 193 189.7C86.409 189.7 0 221.891 0 261.6C0 301.309 86.409 333.5 193 333.5Z" fill="url(#paint0_radial)"/>
<path d="M247.7 226.9L106.4 239.8C101.9 240.2 98.3 236.9 98.3 232.5V21.8001C98.3 17.3001 97.5 14.2001 106.4 13.0001L247.7 0.000140388C252.2 -0.39986 255.8 2.90014 255.8 7.30014V218C255.8 222.5 252.2 226.5 247.7 226.9Z" fill="url(#paint1_linear)"/>
<path d="M248.4 228L107.1 240.9C102.6 241.3 99 238 99 233.6V22.9002C99 18.4002 98.2 15.3002 107.1 14.1002L248.4 1.10024C252.9 0.700238 256.5 4.00024 256.5 8.40024V219.1C256.5 223.6 252.9 227.6 248.4 228Z" fill="url(#paint2_linear)"/>
<path d="M207.2 127.8C220.3 127.3 231.8 124.9 241.1 122C239.7 141.6 236.2 200.6 248.4 239.9C254.4 259.3 262.6 268.6 267.1 269.2C273.6 270.1 279.4 267 279.4 267C287.3 261.1 285.8 247 285.5 244.5C272.3 249.6 254.3 254.9 232.4 256.9C203.1 259.5 178.8 255 162.8 250.6C149.9 201.6 136.9 152.6 124 103.5C138.2 112.8 168.1 129.3 207.2 127.8Z" fill="url(#paint3_linear)"/>
<path d="M207.2 127.8C220.3 127.3 231.8 124.9 241.1 122C235.2 166.5 239.6 199.8 243.6 219C246.9 235.3 253.1 265.1 267.1 269.3C269.8 270.1 272.2 269.8 273.9 269.3C261.9 270.3 248 270.5 232.6 269C203.7 266.1 180 258.2 162.9 250.8C150 201.8 137 152.8 124.1 103.7C138.2 112.8 168.1 129.3 207.2 127.8Z" fill="url(#paint4_linear)"/>
<path d="M160.4 199.7C166.6 202.1 173.5 204.2 181 205.6C200.4 209.3 217.3 207.4 230.1 204.4" stroke="url(#paint5_linear)" stroke-width="1.5432" stroke-miterlimit="10"/>
<path d="M157 178.9C163.2 181.3 170.1 183.4 177.6 184.8C197 188.5 213.9 186.6 226.7 183.6" stroke="url(#paint6_linear)" stroke-width="1.5432" stroke-miterlimit="10"/>
<path d="M160.6 217C166.8 219.4 173.7 221.5 181.2 222.9C200.6 226.6 217.5 224.7 230.3 221.7" stroke="url(#paint7_linear)" stroke-width="1.5432" stroke-miterlimit="10"/>
<path d="M164.8 236.5C171 238.9 177.9 241 185.4 242.4C204.8 246.1 221.7 244.2 234.5 241.2" stroke="url(#paint8_linear)" stroke-width="1.5432" stroke-miterlimit="10"/>
<path d="M227.6 112.5V161.3C227.6 165.2 225.4 167.3 222.6 166L221 165.3C218.3 164 216 166.2 216 170V298.6C216 302.5 213.8 304.6 211 303.3L103.1 254.1C100.4 252.8 98.1 248.7 98.1 244.8V18.7998C98.8 20.2998 100.3 21.4998 103.1 22.6998L211.1 71.9998C213.8 73.2998 216.1 77.3998 216.1 81.2998V93.0998C216.1 96.9998 218.3 101.1 221.1 102.4L222.7 103.1C225.4 104.4 227.6 108.6 227.6 112.5Z" fill="url(#paint9_linear)"/>
<path d="M225.4 113.2V162C225.4 165.9 223.2 168 220.4 166.7L218.8 166C216.1 164.7 213.8 166.9 213.8 170.7V299.3C213.8 303.2 211.6 305.3 208.8 304L103.1 255.5C100.4 254.2 98.1 250.1 98.1 246.2C98 197.1 98.3 29.0001 98.3 29.0001C98.3 29.0001 98.3 23.9001 98.3 19.6001C98.3 22.6001 103.3 24.3001 103.3 24.3001C103.3 24.3001 149.6 45.4001 209 72.7001C211.7 74.0001 214 78.1001 214 82.0001V93.8001C214 97.7001 216.2 101.8 219 103.1L220.6 103.8C223.2 105.2 225.4 109.3 225.4 113.2Z" fill="url(#paint10_linear)"/>
</g>
<defs>
<radialGradient id="paint0_radial" cx="0" cy="0" r="1" gradientUnits="userSpaceOnUse" gradientTransform="translate(192.947 261.604) rotate(0.675591) scale(175.975 61.3335)">
<stop stop-color="#0b5fb3"/>
<stop offset="0.9492" stop-color="#0b5fb3" stop-opacity="0.0507755"/>
<stop offset="1" stop-color="#0b5fb3" stop-opacity="0"/>
</radialGradient>
<linearGradient id="paint1_linear" x1="177.026" y1="239.851" x2="134.6" y2="7.76299" gradientUnits="userSpaceOnUse">
<stop stop-color="#083E7F"/>
<stop offset="1" stop-color="#0f84fa"/>
</linearGradient>
<linearGradient id="paint2_linear" x1="98.9832" y1="135.437" x2="256.516" y2="135.437" gradientUnits="userSpaceOnUse">
<stop stop-color="#0b5fb3"/>
<stop offset="1" stop-color="#083E7F"/>
</linearGradient>
<linearGradient id="paint3_linear" x1="125.173" y1="187.432" x2="285.093" y2="185.427" gradientUnits="userSpaceOnUse">
<stop offset="2.71717e-07" stop-color="#c2e0ff"/>
<stop offset="0.0669503" stop-color="#B2D9FF"/>
<stop offset="0.3283" stop-color="#D3E9FF"/>
<stop offset="0.5776" stop-color="#EBF5FF"/>
<stop offset="0.8077" stop-color="#FAFDFF"/>
<stop offset="1" stop-color="white"/>
</linearGradient>
<linearGradient id="paint4_linear" x1="200.109" y1="270.739" x2="198.002" y2="102.706" gradientUnits="userSpaceOnUse">
<stop offset="2.71717e-07" stop-color="#c2e0ff"/>
<stop offset="0.0537848" stop-color="#B2D9FF"/>
<stop offset="0.2637" stop-color="#D3E9FF"/>
<stop offset="0.464" stop-color="#EBF5FF"/>
<stop offset="0.6489" stop-color="#FAFDFF"/>
<stop offset="0.8034" stop-color="white"/>
</linearGradient>
<linearGradient id="paint5_linear" x1="160.206" y1="204.014" x2="230.247" y2="203.136" gradientUnits="userSpaceOnUse">
<stop stop-color="#c2e0ff"/>
<stop offset="1" stop-color="#c2e0ff"/>
</linearGradient>
<linearGradient id="paint6_linear" x1="156.79" y1="183.145" x2="226.831" y2="182.267" gradientUnits="userSpaceOnUse">
<stop stop-color="#c2e0ff"/>
<stop offset="1" stop-color="#c2e0ff"/>
</linearGradient>
<linearGradient id="paint7_linear" x1="160.422" y1="221.258" x2="230.463" y2="220.38" gradientUnits="userSpaceOnUse">
<stop stop-color="#c2e0ff"/>
<stop offset="1" stop-color="#c2e0ff"/>
</linearGradient>
<linearGradient id="paint8_linear" x1="164.676" y1="240.733" x2="234.717" y2="239.854" gradientUnits="userSpaceOnUse">
<stop stop-color="#c2e0ff"/>
<stop offset="1" stop-color="#c2e0ff"/>
</linearGradient>
<linearGradient id="paint9_linear" x1="98.28" y1="142.814" x2="227.607" y2="142.814" gradientUnits="userSpaceOnUse">
<stop offset="1.33195e-07" stop-color="#0f84fa"/>
<stop offset="1" stop-color="#083E7F"/>
</linearGradient>
<linearGradient id="paint10_linear" x1="98.1725" y1="143.857" x2="225.435" y2="143.857" gradientUnits="userSpaceOnUse">
<stop stop-color="#0b5fb3"/>
<stop offset="1" stop-color="#0f84fa"/>
</linearGradient>
<clipPath id="clip0">
<rect width="385.9" height="333.5" fill="white"/>
</clipPath>
</defs>
</svg>
