<svg width="100" height="100" viewBox="0 0 100 100" fill="none" xmlns="http://www.w3.org/2000/svg">
<path d="M87.9879 74.9825C87.6487 74.9825 87.3701 74.9825 87.3701 74.5074C87.3701 73.7763 87.3701 73.0453 87.3701 72.3264C87.3701 71.6076 87.3701 71.6563 86.7402 71.6441C86.1102 71.6319 85.5288 71.6441 84.9836 71.6441C84.6445 71.6441 84.4628 71.7781 84.4749 72.1315C84.487 72.4848 84.4749 72.4848 84.4749 72.6554C84.4749 73.0575 84.5475 73.3377 85.0321 73.3133C85.1688 73.2952 85.3073 73.2952 85.444 73.3133C85.5409 73.3133 85.6499 73.3986 85.6257 73.5205C85.6095 73.6179 85.5628 73.7075 85.4924 73.7763C85.2698 73.8695 85.031 73.9175 84.7898 73.9175C84.5487 73.9175 84.3099 73.8695 84.0872 73.7763C83.8813 73.7032 83.8571 73.4474 83.8571 73.2402C83.8571 72.6798 83.8571 72.1315 83.8571 71.571C83.8571 71.0106 84.063 70.974 84.487 70.974H88L87.9879 74.9825Z" fill="#026000"/>
<path d="M44.2811 52.2472L41.8583 50.5536C41.5002 50.2824 41.1282 50.0302 40.7438 49.7982C40.5117 49.6842 40.3218 49.4986 40.2019 49.2685C40.0821 49.0383 40.0385 48.7757 40.0776 48.5188C40.0776 48.1411 40.0776 47.7634 40.0776 47.3004C40.7227 47.5447 41.3211 47.8991 41.8462 48.3483C42.0945 48.5573 42.3899 48.7021 42.7066 48.77C43.0233 48.838 43.3517 48.827 43.6633 48.7382C44.4365 48.5748 45.2234 48.4851 46.0134 48.4701C46.3805 48.4689 46.7405 48.3679 47.0551 48.1777C46.6787 47.7327 46.2277 47.3575 45.7226 47.0689C45.0806 46.545 44.378 46.0942 43.7238 45.5825C43.1184 45.1823 42.4512 44.8859 41.7493 44.7052C37.5094 43.1944 33.2211 41.6714 28.9571 40.1362C28.2181 39.8682 27.4913 39.5636 26.7523 39.2833C28.1818 36.9074 27.6367 37.2852 29.8777 38.1502C34.3114 39.8682 38.7208 41.6714 43.2029 43.4259C43.519 43.5573 43.823 43.7163 44.1115 43.9011L51.3798 48.7747C51.4888 48.8478 51.6221 48.8965 51.6705 49.1037C50.6045 49.4205 49.49 49.5179 48.2181 49.7616C49.084 50.5723 49.9982 51.3292 50.9558 52.0278C51.3434 52.0278 51.4767 51.7111 51.6584 51.5283C52.3974 50.7973 53.1242 50.0418 53.851 49.3108C54.712 48.1967 55.9487 47.4383 57.3277 47.1786C57.3277 46.7887 57.037 46.6547 56.7947 46.4963C56.6087 46.3804 56.4511 46.2239 56.3336 46.0382C56.2161 45.8526 56.1419 45.6426 56.1163 45.4241C55.9833 44.3205 55.9226 43.2094 55.9346 42.0979C55.9344 41.748 56.069 41.4118 56.3101 41.1597C56.407 41.0257 56.4918 40.8673 56.6009 40.7332C57.2671 39.9047 57.8122 38.9909 58.6481 38.1502C59.0322 38.9366 59.3562 39.7512 59.6172 40.587C59.6353 40.655 59.6335 40.7269 59.612 40.7939C59.5905 40.8609 59.5503 40.9202 59.4961 40.9647C59.4085 41.0712 59.3111 41.1691 59.2053 41.2572C58.7417 41.5899 58.3817 42.0483 58.1672 42.579C57.9527 43.1097 57.8926 43.6907 57.9939 44.2544C57.9954 44.5297 58.0607 44.8009 58.1848 45.0463C58.3089 45.2917 58.4883 45.5045 58.7087 45.6678L60.4531 46.9349C60.8109 47.1744 61.235 47.2939 61.6644 47.2761C62.8758 47.2761 64.1478 47.2761 65.444 47.2761C65.185 47.9049 64.811 48.4794 64.3416 48.9696C64.2685 49.0443 64.1785 49.0999 64.0794 49.1317C63.9802 49.1636 63.8748 49.1707 63.7723 49.1524H62.9485C62.4276 49.1524 62.367 49.3108 62.573 49.8103C62.6124 49.9101 62.6568 50.0077 62.7062 50.1028C63.6632 52.1009 64.5596 54.1357 65.6014 56.0851C66.1286 57.0684 66.304 58.204 66.0981 59.3017C66.0507 59.4985 66.0596 59.7048 66.124 59.8967C66.1883 60.0887 66.3053 60.2583 66.4615 60.3861C66.8492 60.7516 67.2126 61.1537 67.6729 61.6045C66.433 61.5421 65.2378 61.1188 64.2326 60.3861C64.2756 59.701 64.41 59.0248 64.6323 58.3757C64.737 58.0097 64.698 57.6171 64.5233 57.2792C63.3846 54.9398 62.2701 52.6005 61.1435 50.249C60.6469 49.2255 59.6293 48.7747 58.7208 48.1533C58.4785 47.9706 58.1151 48.068 57.8122 48.1533C56.6875 48.3752 55.6565 48.9361 54.8565 49.7616C54.0327 50.6023 53.1969 51.4308 52.4337 52.2837C51.9491 52.7833 51.9734 52.8929 52.5306 53.3315C55.7892 55.8902 59.06 58.4366 62.3065 61.0075C63.1724 61.5795 64.1201 62.0151 65.1169 62.299L79.9685 67.8062C81.4221 68.3423 82.8758 68.8784 84.2931 69.5607C83.0817 69.5607 81.9672 69.4754 80.8043 69.5607C78.8736 69.6464 76.9505 69.2662 75.1956 68.4519C71.6462 67.0264 68.0848 65.6252 64.4748 64.3703C62.5775 63.6804 60.8086 62.6755 59.2417 61.3974C55.9709 58.79 52.6396 56.2679 49.3568 53.6971C49.0197 53.4096 48.5868 53.2616 48.1454 53.2828C47.5276 53.2828 46.934 53.2828 46.2799 53.2828C46.1506 53.2663 46.0192 53.2834 45.8983 53.3325C45.7775 53.3815 45.6711 53.4609 45.5894 53.563C46.5221 54.355 47.4186 55.1348 48.3392 55.9024L53.7783 60.3861C55.6075 61.9822 57.5215 63.5296 59.3992 65.1257C59.6824 65.3252 59.998 65.4736 60.3319 65.5643L70.5802 69.1464L71.4767 69.5119C70.98 69.5119 70.7377 69.5729 70.4833 69.5729H68.2059C66.5451 69.7324 64.8721 69.4421 63.3604 68.7322L58.3331 66.8315C57.8541 66.636 57.4117 66.3599 57.0248 66.0151C54.7474 64.1144 52.4943 62.1771 50.2169 60.2643C47.9395 58.3514 45.3713 56.2435 42.9486 54.1722C42.8466 54.0764 42.7326 53.9944 42.6094 53.9286C42.3792 53.8311 42.1006 53.7702 41.9916 54.0626C41.9531 54.1218 41.9309 54.1902 41.9271 54.2609C41.9234 54.3316 41.9382 54.402 41.9701 54.465C42.0021 54.528 42.05 54.5815 42.1091 54.6199C42.1682 54.6584 42.2363 54.6805 42.3065 54.684C43.1908 54.8789 43.5179 55.7074 44.2932 56.2923L41.3616 56.6334C42.0109 57.4336 42.724 58.1793 43.4937 58.8631C43.6754 59.0337 43.8813 59.1555 44.0509 59.3261L50.5439 65.6009C51.3919 66.4172 52.2641 67.2092 53.1242 68.0377C53.41 68.2881 53.7502 68.4675 54.1175 68.5616L56.6614 69.4266C56.5039 69.7069 56.2617 69.5972 56.0678 69.5972C54.6869 69.5972 53.3059 69.5972 51.9249 69.5972C51.6869 69.6097 51.449 69.5704 51.2274 69.4821C51.0059 69.3938 50.8058 69.2585 50.6408 69.0855C48.2181 66.7705 45.7953 64.3703 43.3725 62.0553C42.0158 60.8369 40.7075 59.4479 39.3144 58.1686C39.0842 59.387 39.0842 59.387 37.885 59.387C37.8165 59.3811 37.7476 59.3811 37.679 59.387C37.4246 59.387 37.0855 59.2773 36.9643 59.6185C36.8991 59.7804 36.8827 59.9579 36.9172 60.1291C36.9516 60.3003 37.0354 60.4575 37.1581 60.581C37.8244 61.2999 38.4543 62.0309 39.1206 62.7254C41.0709 64.7967 43.0334 66.8436 44.9958 68.9027C45.129 69.0489 45.3229 69.1586 45.335 69.4876C44.4466 69.6581 43.5341 69.6581 42.6457 69.4876C42.246 69.4876 42.0158 68.9637 41.7372 68.6591C40.9861 67.8062 40.2714 66.9167 39.5203 66.0639C37.9455 64.2606 36.3586 62.4817 34.7959 60.6785C34.6236 60.4626 34.389 60.3056 34.1243 60.2293C33.8597 60.1529 33.578 60.1609 33.3181 60.2521L35.2926 62.3599C34.6869 62.5792 34.0812 62.3599 33.4755 62.567L39.3023 69.4998C38.4059 69.4998 37.679 69.4998 36.9401 69.4998C36.6494 69.4998 36.5524 69.2439 36.4071 69.0611C35.4864 67.8427 34.5779 66.7096 33.6694 65.5399C33.1363 64.8576 32.6154 64.1631 32.0946 63.4808C32.0011 63.3342 31.8688 63.2166 31.7126 63.1413C31.5564 63.066 31.3825 63.0359 31.2102 63.0544C29.805 63.1641 28.3998 63.2493 26.9946 63.3956C26.5874 63.4895 26.1605 63.4423 25.7832 63.2615L23.3605 61.7629C23.9121 61.3943 24.5112 61.1032 25.1412 60.8978C25.221 60.8671 25.3079 60.8599 25.3916 60.8772C25.4753 60.8945 25.5523 60.9354 25.6136 60.9953C25.7932 61.1008 25.9565 61.2322 26.0982 61.3852C26.3107 61.6569 26.604 61.8531 26.9353 61.9451C27.2666 62.0372 27.6185 62.0203 27.9395 61.8969C28.7158 61.746 29.5007 61.6443 30.2896 61.5923C30.6481 61.5987 30.9996 61.4922 31.295 61.2877C30.1685 60.5567 29.0903 59.8134 27.9637 59.1433C27.7379 59.0365 27.5503 58.8621 27.4267 58.6441C27.3031 58.426 27.2495 58.1748 27.2732 57.9249C27.2319 57.4348 27.2687 56.9412 27.3823 56.4628C27.899 56.6779 28.3808 56.9695 28.8117 57.3279C29.4156 57.7225 29.9979 58.1496 30.5561 58.6072C30.6791 58.7323 30.8305 58.8253 30.9972 58.8784C31.1639 58.9314 31.341 58.9429 31.5131 58.9118C32.8694 58.7032 34.2123 58.4143 35.5349 58.0468C35.5349 58.0468 35.5349 58.0468 35.6439 57.9249C34.6021 57.2913 33.5846 56.6456 32.5307 56.0486C32.2908 55.9574 32.0886 55.7876 31.9567 55.5664C31.8248 55.3453 31.7709 55.0859 31.8038 54.8302C31.8038 54.355 31.8038 53.8676 31.8038 53.3315C32.2555 53.4333 32.673 53.6517 33.0152 53.9651C33.948 54.6109 34.8807 55.2688 35.8014 55.9389C35.9062 56.0268 36.0287 56.0909 36.1604 56.1266C36.2921 56.1624 36.43 56.169 36.5646 56.146C37.5458 55.9998 38.5391 55.9146 39.5325 55.7927C39.7626 55.7927 40.0412 55.7927 40.126 55.5125C40.2108 55.2322 40.017 55.0007 39.7626 54.8545C38.8783 54.3184 37.994 53.758 37.0976 53.2462C36.9411 53.1771 36.8108 53.0593 36.7258 52.9102C36.6408 52.7611 36.6055 52.5885 36.6251 52.4177C36.6251 51.8694 36.6251 51.309 36.6251 50.6754C37.4479 50.9817 38.2106 51.4312 38.8783 52.0035C39.3056 52.3215 39.7999 52.5363 40.3229 52.6314C40.846 52.7265 41.3837 52.6992 41.8947 52.5518C42.337 52.4991 42.7818 52.4706 43.2272 52.4665C43.592 52.4942 43.9572 52.4182 44.2811 52.2472Z" fill="#026000"/>
<path d="M76.4192 33.6665C75.7771 33.1426 75.1351 32.6187 74.481 32.1069C71.7782 30.0032 68.7769 28.3193 65.5773 27.1115C62.4158 25.9201 59.0976 25.2017 55.7287 24.9793C52.891 24.8142 50.0439 24.9942 47.249 25.5154C42.9654 26.2934 38.8747 27.9077 35.2079 30.2671C34.1795 30.8895 32.9905 31.1906 31.7918 31.1322C30.9818 31.1266 30.1729 31.0737 29.369 30.9738C28.0973 30.8675 26.8439 30.6014 25.6379 30.1819C24.1 29.5557 22.7064 28.6185 21.5435 27.4283C21.0589 26.9531 20.6228 26.417 20.1019 25.8443C18.2243 29.9016 16.3709 33.8614 14.5417 37.8213C13.7664 39.5392 13.0274 41.1719 12.24 42.8289C12.1126 43.05 12.0338 43.2959 12.0087 43.5502C11.9836 43.8045 12.0129 44.0612 12.0947 44.3032C12.3854 45.1926 12.5792 46.1064 12.8336 47.008C14.3115 52.3081 15.8015 57.5959 17.2431 62.9082C17.2938 63.2231 17.4358 63.5159 17.6513 63.75C17.8668 63.9841 18.1462 64.149 18.4544 64.2241C22.2461 65.4425 26.0135 66.6609 29.793 67.8062L32.3611 68.5981C32.9305 68.7687 33.1243 68.6712 33.197 68.0742C33.2697 67.4772 33.197 67.0386 33.197 66.5147C33.2088 66.4286 33.2029 66.3409 33.1796 66.2572C33.1563 66.1735 33.1162 66.0955 33.0616 66.0281C33.0071 65.9607 32.9393 65.9052 32.8626 65.8653C32.7858 65.8253 32.7017 65.8017 32.6155 65.7958C32.0462 65.6983 31.4768 65.5278 30.9196 65.3937C27.5035 64.5652 24.0995 63.7245 20.6834 62.9569C20.4801 62.9357 20.2894 62.8478 20.1406 62.707C19.9918 62.5661 19.893 62.3799 19.8596 62.1771C19.7914 61.9081 19.7064 61.6436 19.6052 61.3852C18.7088 58.2539 17.8124 55.1348 16.9281 52.0035C16.2134 49.2864 15.4865 46.6425 14.7234 43.9864C14.6541 43.7861 14.6301 43.5728 14.6531 43.362C14.6762 43.1513 14.7457 42.9483 14.8566 42.768L18.3091 36.2739C18.9996 34.958 19.69 33.6421 20.3926 32.3263C20.5865 31.9729 20.8166 31.6318 21.0831 31.2053L21.8463 33.3497C22.4223 35.033 23.4243 36.5363 24.7536 37.7116C25.4562 38.3086 25.4683 38.2964 26.2315 37.7116C27.575 36.7357 29.0745 35.9981 30.6652 35.5307C31.5616 35.287 32.4701 35.0798 33.415 34.8483C33.1728 34.4585 32.9547 34.1173 32.7367 33.7518C33.9845 32.7189 35.3224 31.8013 36.7342 31.0104C37.1945 31.7292 37.6064 32.3628 37.9456 33.0086C38.4786 33.898 38.4665 33.898 37.6064 34.5316C37.4732 34.629 37.2793 34.6656 37.2672 34.9458C38.2485 35.3966 38.6724 34.5194 39.375 34.1417L37.4368 30.6449C38.6991 29.8999 40.0199 29.2601 41.3859 28.732C41.4565 28.6967 41.5342 28.6784 41.613 28.6785C41.6918 28.6786 41.7695 28.6971 41.8399 28.7325C41.9104 28.7679 41.9717 28.8193 42.0191 28.8827C42.0664 28.946 42.0985 29.0196 42.1128 29.0975C42.2824 29.5483 42.4762 29.9991 42.6458 30.4499C43.1182 31.6683 43.1182 31.6683 41.8705 32.2044C41.6524 32.3019 41.4102 32.4603 41.2648 32.1069C41.1194 31.7536 41.3254 31.6805 41.5919 31.5952C41.7511 31.5304 41.9051 31.453 42.0522 31.3637C42.1037 31.3229 42.1393 31.265 42.1526 31.2004C42.1659 31.1357 42.1561 31.0684 42.1249 31.0104C41.9432 30.5596 41.7372 30.1209 41.5192 29.6945C41.4717 29.6198 41.3979 29.5658 41.3127 29.5432C41.2274 29.5206 41.1368 29.5312 41.0589 29.5727C40.2461 29.8707 39.4599 30.2376 38.7088 30.6692C38.6523 30.6937 38.6016 30.7298 38.5599 30.7754C38.5183 30.8209 38.4868 30.8748 38.4673 30.9335C38.4479 30.9922 38.441 31.0543 38.4471 31.1159C38.4532 31.1774 38.4722 31.237 38.5028 31.2906C38.6119 31.5099 38.7451 31.717 38.8541 31.9242C39.3266 32.7649 39.799 33.6056 40.2593 34.4463C39.908 34.824 39.4356 34.9336 39.1206 35.4332C39.8653 35.5889 40.5863 35.8429 41.2648 36.1886C41.4278 36.2781 41.6145 36.3144 41.7989 36.2926C41.9834 36.2708 42.1565 36.1918 42.2945 36.0667C43.5445 35.1966 44.8751 34.4499 46.2678 33.8371C48.4491 32.8346 50.7923 32.2361 53.1848 32.0704C54.7165 31.9617 56.2553 32.0148 57.776 32.2288C60.7223 32.5956 63.5605 33.5748 66.1103 35.1042C66.3626 35.2978 66.6577 35.4274 66.9704 35.4819C67.0725 35.1858 67.0903 34.867 67.0218 34.5613C66.9533 34.2556 66.8012 33.9752 66.5827 33.7518C66.3283 33.4594 66.0982 33.1669 65.868 32.8502C65.6955 32.6348 65.567 32.3871 65.4901 32.1215C65.4132 31.856 65.3893 31.5777 65.4198 31.3028C65.5167 30.6449 65.868 30.4743 66.4374 30.8032C66.9195 31.0885 67.2782 31.5449 67.4428 32.0826C67.8704 33.3695 67.9663 34.7446 67.7214 36.0789C68.7882 36.9 69.7962 37.7958 70.7378 38.7594C71.0287 39.0572 71.2447 39.4207 71.3677 39.8194C71.8995 41.7578 72.1203 43.7691 72.0218 45.7774C72.0218 46.0698 72.0218 46.3866 71.7432 46.5207C71.1375 46.7887 71.186 47.3126 71.186 47.8365C71.186 51.6258 71.186 55.415 71.186 59.2042C71.2095 59.4778 71.168 59.7531 71.0647 60.0074C70.9615 60.2616 70.7996 60.4875 70.5924 60.6663C70.3441 60.865 70.1831 61.1537 70.1442 61.4705C70.6045 61.4705 71.1133 61.6654 71.3556 61.3486C71.9613 60.6541 72.7244 60.1302 72.6881 58.9118C72.5912 55.4394 72.6881 51.9669 72.6881 48.4823C72.6881 47.934 72.6033 47.3735 73.1484 46.9715C73.3907 46.7887 73.3301 46.4597 73.3301 46.1917C73.3301 45.3875 73.209 44.6078 73.1605 43.8158C73.0585 42.504 72.8642 41.2011 72.5791 39.9169C72.2399 38.3695 72.2399 38.3208 73.4755 37.2973C73.5724 37.212 73.7057 37.1511 73.8026 37.0658C74.7111 36.2617 75.6197 35.4575 76.5161 34.629C76.8795 34.1782 76.8553 34.0442 76.4192 33.6665ZM43.9904 32.6918C42.9486 33.1182 41.9189 33.6056 40.9014 34.1417C40.274 33.235 39.746 32.2628 39.3266 31.2419C39.7472 30.9226 40.2126 30.6681 40.7076 30.4865C41.1073 30.2793 41.1679 30.5961 41.2406 30.9129L40.1624 31.4977L41.071 33.2766C41.9189 32.9111 42.7063 32.5699 43.4937 32.2166C43.5607 32.2001 43.6228 32.1679 43.675 32.1226C43.7272 32.0773 43.7679 32.0202 43.7939 31.956C43.8199 31.8918 43.8305 31.8223 43.8246 31.7533C43.8187 31.6842 43.7967 31.6175 43.7602 31.5587C43.4332 30.6814 43.1182 29.8042 42.8154 28.9147C42.6094 28.2933 42.6337 28.2812 43.2636 28.0375C44.4023 27.611 45.5894 27.4161 46.7524 27.0871C47.1764 26.9531 47.3702 27.0871 47.4429 27.5745C47.5761 28.3908 47.7699 29.2071 47.9274 30.0113C47.465 30.2549 46.9656 30.4196 46.4495 30.4986C46.4091 30.5136 46.3659 30.5196 46.3229 30.5164C46.2799 30.5132 46.2381 30.5008 46.2002 30.4801C46.1624 30.4593 46.1294 30.4307 46.1035 30.396C46.0775 30.3614 46.0592 30.3216 46.0498 30.2793C45.965 30.0478 46.1467 29.9869 46.292 29.8894C46.4374 29.792 46.9099 29.8894 47.1764 29.5117C47.0794 29.1218 46.9946 28.6832 46.8735 28.2933C46.8614 28.2244 46.8347 28.1589 46.7952 28.1013C46.7556 28.0437 46.7042 27.9954 46.6445 27.9595C46.5847 27.9237 46.518 27.9012 46.4488 27.8936C46.3796 27.8861 46.3096 27.8936 46.2436 27.9156L43.942 28.537C43.5785 28.6345 43.4453 28.8294 43.6028 29.2315C43.9177 30.0722 44.2085 30.9251 44.4992 31.778C44.7899 32.6309 44.7051 32.4237 43.9904 32.6918ZM48.6906 31.2784C47.564 31.5465 46.4374 31.8511 45.2745 32.1435C44.8626 31.2419 44.7051 30.2793 44.3781 29.3777C44.3781 29.2315 44.3781 29.0731 44.4992 29.0244C44.9708 28.8228 45.4768 28.7153 45.9892 28.7076C46.0379 28.7122 46.0849 28.7277 46.1268 28.753C46.1688 28.7783 46.2045 28.8128 46.2315 28.8538C46.2602 28.9185 46.2622 28.9919 46.2373 29.0581C46.2123 29.1243 46.1623 29.1779 46.0982 29.2071C45.8075 29.3777 45.4198 29.3533 45.1776 29.6336C45.1719 29.6699 45.1719 29.7069 45.1776 29.7432C45.335 30.2671 45.3108 30.9616 45.7469 31.2419C46.183 31.5221 46.6797 31.0104 47.1885 31.0104C47.4586 30.9669 47.7257 30.9058 47.988 30.8276C48.5937 30.6936 48.6664 30.5961 48.5694 29.9991C48.412 29.1584 48.2666 28.3055 48.0728 27.4648C47.9759 27.0627 48.0728 26.8922 48.4846 26.8556C49.2632 26.7351 50.0477 26.6578 50.8347 26.6241C51.2708 26.6241 51.719 26.4779 52.1673 26.4657C52.6155 26.4535 52.9062 26.5632 52.9425 27.1602C52.9789 27.7572 52.9425 28.3786 52.9425 29.0244C52.9425 29.4386 52.7608 29.5848 52.3732 29.5727C51.9856 29.5605 51.7554 29.5727 51.4525 29.5727C51.1497 29.5727 51.1618 29.5727 51.1376 29.3655C51.1134 29.1584 51.2224 29.1097 51.3435 29.0366L51.5373 28.9756C51.7917 28.9025 52.1673 29.0609 52.2521 28.7198C52.3728 28.2813 52.3728 27.818 52.2521 27.3795C52.2319 27.3202 52.1999 27.2656 52.1581 27.2191C52.1163 27.1726 52.0656 27.1351 52.0089 27.1089C51.9523 27.0827 51.8909 27.0683 51.8286 27.0667C51.7663 27.065 51.7043 27.0761 51.6464 27.0993C51.0091 27.2325 50.359 27.2938 49.7081 27.2821C48.8844 27.3552 48.7996 27.5379 48.9329 28.3421C49.0661 29.1462 49.2236 29.8285 49.2599 30.5961C49.2682 30.6787 49.26 30.7622 49.2357 30.8416C49.2114 30.9209 49.1716 30.9946 49.1185 31.0582C49.0654 31.1218 49.0002 31.174 48.9267 31.2119C48.8532 31.2497 48.7729 31.2723 48.6906 31.2784ZM54.2145 27.7938C54.2145 28.5492 54.2145 29.3168 54.2145 30.0844C54.2145 30.852 54.2145 30.7423 53.5846 30.7667C52.5815 30.7432 51.5787 30.8249 50.5925 31.0104C50.5186 31.0387 50.4392 31.0497 50.3604 31.0426C50.2817 31.0355 50.2055 31.0105 50.1378 30.9694C50.0701 30.9283 50.0126 30.8722 49.9696 30.8054C49.9267 30.7386 49.8994 30.6629 49.8899 30.5839C49.7808 29.8773 49.7081 29.1462 49.6355 28.4274C49.6355 28.0984 49.7566 27.8913 50.1079 27.9034C50.5795 27.8375 51.0597 27.8792 51.5131 28.0253C51.2103 28.5492 50.7378 28.4395 50.4107 28.5858C50.4107 28.6832 50.3017 28.7563 50.3138 28.8051C50.4713 29.2924 50.3138 29.926 50.6288 30.2793C50.9438 30.6327 51.5373 30.1575 52.0219 30.1819C52.5064 30.2062 53.0758 30.389 53.415 30.06C53.7542 29.7311 53.5482 29.0731 53.5725 28.5736C53.5967 28.074 53.5725 27.4648 53.5725 26.9044C53.564 26.8437 53.5699 26.7819 53.5896 26.7239C53.6093 26.666 53.6424 26.6135 53.686 26.5708C53.7297 26.528 53.7827 26.4963 53.8409 26.478C53.899 26.4598 53.9606 26.4556 54.0207 26.4657C54.0892 26.4593 54.1581 26.4593 54.2266 26.4657C55.438 26.6972 56.6494 26.5998 57.8608 26.8556C58.2121 26.9287 58.2726 27.1115 58.2969 27.4283C58.2969 28.1349 58.0667 28.7929 58.0425 29.4752C58.0441 29.5114 58.0384 29.5476 58.0258 29.5815C58.0131 29.6155 57.9937 29.6465 57.9688 29.6727C57.9439 29.6988 57.914 29.7197 57.8808 29.7339C57.8477 29.7481 57.812 29.7555 57.776 29.7554C57.2627 29.7699 56.7529 29.6657 56.286 29.4508C56.286 29.4508 56.286 29.329 56.286 29.2681C56.2834 29.2175 56.2974 29.1674 56.3259 29.1256C56.3543 29.0838 56.3956 29.0525 56.4434 29.0366H56.5525C56.8432 29.0975 57.2551 29.3168 57.4004 29.0366C57.5604 28.5865 57.6463 28.1133 57.6548 27.6354C57.6548 27.4405 57.4731 27.3673 57.2914 27.3552C56.5005 27.3447 55.7112 27.2796 54.9292 27.1602C54.3962 26.9653 54.2387 27.1724 54.2145 27.7938ZM59.6052 28.2446C59.5204 28.866 59.4477 29.463 59.3508 30.0966C59.2054 30.9495 58.9874 31.1322 58.1394 30.9373C57.3398 30.7971 56.5275 30.744 55.7166 30.7789C54.8444 30.7789 54.8444 30.7789 54.8323 29.8163C54.8099 29.2305 54.867 28.6444 55.0019 28.074C55.0019 27.8425 55.1594 27.6598 55.4017 27.6841C55.8499 27.6841 56.286 27.8182 56.7221 27.9156C56.7535 27.9286 56.7818 27.9481 56.8053 27.9728C56.8287 27.9975 56.8467 28.0269 56.8582 28.0591C56.8696 28.0912 56.8742 28.1255 56.8716 28.1595C56.869 28.1936 56.8593 28.2267 56.8432 28.2568C56.8316 28.3074 56.8015 28.3518 56.7588 28.3811C56.7162 28.4105 56.6642 28.4226 56.613 28.4152C56.3102 28.4152 55.9347 28.1349 55.753 28.4152C55.5881 28.8012 55.4937 29.2139 55.4743 29.6336C55.4743 29.9625 55.5834 30.1697 55.9468 30.1453C56.6666 30.1412 57.385 30.2106 58.0909 30.3524C58.5028 30.3524 58.733 30.2671 58.7572 29.792C58.7572 29.1097 58.8904 28.4274 58.9995 27.7451C59.1085 27.0627 59.2902 26.9531 59.908 27.0993C60.865 27.3186 61.8462 27.5379 62.8032 27.806C63.7602 28.074 63.8571 28.1349 63.5422 29.1584C63.421 29.5848 63.2999 30.0113 63.1666 30.4377C63.123 30.5282 63.0703 30.614 63.0091 30.6936L61.5555 30.3403C61.5126 30.3386 61.4706 30.3269 61.4329 30.3062C61.3952 30.2855 61.3628 30.2563 61.3382 30.2209C61.3135 30.1856 61.2974 30.1449 61.291 30.1022C61.2845 30.0595 61.288 30.0159 61.3011 29.9747C61.3082 29.9358 61.3243 29.899 61.3479 29.8673C61.3716 29.8357 61.4023 29.81 61.4375 29.7922C61.4727 29.7745 61.5116 29.7653 61.551 29.7652C61.5904 29.7652 61.6292 29.7743 61.6645 29.792C61.9674 29.792 62.2944 30.0966 62.5609 29.9016C62.8274 29.7067 62.888 29.1584 63.0213 28.7807C63.0213 28.7198 63.0213 28.6467 63.0213 28.5005C62.0733 28.1371 61.0911 27.8718 60.0897 27.7085C59.7505 27.6232 59.6415 27.9522 59.6052 28.2446ZM64.8626 31.4856C65.0443 31.8633 64.9716 32.18 65.226 32.4846C64.5961 32.3141 64.5961 32.3141 64.8626 31.4856ZM65.5773 30.2671C65.5773 30.2671 65.4561 30.1575 65.4561 30.1209C65.4561 30.0844 65.6136 29.9504 65.7469 29.9625C65.8801 29.9747 65.8317 30.0235 65.868 30.06L65.5773 30.2671ZM68.097 30.4255C67.1541 29.9114 66.1693 29.4794 65.1533 29.134C64.7641 29.784 64.4665 30.4852 64.269 31.2175C63.8571 32.1313 63.8935 32.1191 62.9122 31.8511C61.931 31.583 60.9135 31.3515 59.8474 31.0957C59.9215 30.3157 60.051 29.542 60.2351 28.7807C60.2498 28.6958 60.2948 28.6191 60.3617 28.5653C60.4287 28.5114 60.5129 28.484 60.5985 28.4883C61.1127 28.4933 61.6217 28.5924 62.1006 28.7807C62.1006 28.7807 62.2096 28.8904 62.1975 28.9391C62.1765 29.0374 62.1257 29.1268 62.0522 29.195C61.9941 29.2318 61.9269 29.2513 61.8583 29.2513C61.7897 29.2513 61.7225 29.2318 61.6645 29.195C61.3738 29.0975 61.0588 28.9635 60.8408 29.3046C60.6189 29.6691 60.5493 30.1071 60.6469 30.523C60.6469 30.6814 60.8165 30.7301 60.9498 30.7667L63.1424 31.3515C63.4816 31.4368 63.6391 31.1931 63.7239 30.9007C63.9783 30.0844 64.2448 29.2681 64.5355 28.3543C65.8836 28.7638 67.1865 29.3109 68.424 29.9869C68.9813 30.2793 69.0055 30.3159 68.7511 30.852C68.5785 31.291 68.3417 31.7017 68.0485 32.0704C67.4549 31.5587 67.9395 31.0104 68.097 30.4255ZM68.3877 32.9598C68.7027 32.3384 69.0418 31.7414 69.3689 31.1322C69.3932 31.0559 69.4355 30.9867 69.492 30.9303C69.5485 30.8738 69.6177 30.8319 69.6937 30.808C69.7697 30.7841 69.8503 30.779 69.9287 30.793C70.0071 30.807 70.081 30.8398 70.1442 30.8885C71.3763 31.5958 72.5437 32.4113 73.633 33.3253C73.431 33.7251 73.1741 34.0942 72.8698 34.4219C72.6275 34.6778 72.567 35.1773 72.0703 35.1164C71.5736 35.0555 71.0527 34.4219 70.8589 33.9711C71.3435 33.898 71.5857 34.3244 71.9613 34.4341C72.3731 34.1782 72.5185 33.7274 72.8214 33.3497C71.9438 32.6308 71.0168 31.9753 70.0473 31.3881L68.4361 34.1173C68.3332 33.9436 68.2748 33.7468 68.2664 33.5447C68.2579 33.3427 68.2996 33.1416 68.3877 32.9598ZM74.5294 34.5925C74.4671 34.6714 74.3982 34.7447 74.3235 34.8118C73.6693 35.3844 73.2938 36.2008 72.5549 36.7612C71.4888 36.0789 70.5318 35.2382 69.4053 34.6412C69.1387 34.5072 69.1145 34.2879 69.2599 34.032C69.5991 33.4715 69.914 32.8989 70.3138 32.2166L71.7675 33.1669C71.8765 33.2401 71.9734 33.3619 71.8644 33.5081C71.7553 33.6543 71.6342 33.6178 71.5009 33.5081L71.3556 33.4472C71.1133 33.3375 70.9437 32.9842 70.6409 33.1791C70.3285 33.4061 70.1089 33.7395 70.0231 34.1173C70.0231 34.3122 70.0836 34.4341 70.2411 34.5437L72.0461 35.884C72.0901 35.9268 72.1435 35.9584 72.2021 35.9764C72.2606 35.9944 72.3225 35.9982 72.3828 35.9875C72.443 35.9768 72.4999 35.9519 72.5488 35.9149C72.5976 35.8778 72.6371 35.8297 72.6639 35.7743C72.9667 35.3601 73.2938 34.958 73.6209 34.5559C73.7541 34.3975 73.8995 34.2513 74.0449 34.1051C74.0733 34.0717 74.1086 34.0448 74.1483 34.0264C74.188 34.008 74.2313 33.9985 74.275 33.9985C74.3188 33.9985 74.362 34.008 74.4017 34.0264C74.4415 34.0448 74.4767 34.0717 74.5052 34.1051C74.5406 34.1342 74.5695 34.1705 74.5901 34.2115C74.6107 34.2525 74.6226 34.2975 74.6248 34.3434C74.6271 34.3893 74.6198 34.4352 74.6034 34.4781C74.5869 34.521 74.5617 34.56 74.5294 34.5925Z" fill="#026000"/>
<path d="M48.945 43.5112C48.2009 42.1012 47.2719 40.798 46.183 39.6366C45.6327 39.0704 45.046 38.5413 44.4265 38.0527C43.9662 37.675 43.9662 37.5654 44.4871 37.2364C46.6563 35.8901 49.0551 34.9606 51.5616 34.495C52.76 34.2744 53.9776 34.1764 55.1957 34.2026C57.1389 34.1585 59.0733 34.4765 60.9013 35.1407C59.6718 35.4373 58.4587 35.7993 57.2672 36.2251C56.1216 36.7057 55.0294 37.306 54.0086 38.0162C52.9812 38.7115 52.0416 39.5298 51.2103 40.453C50.3943 41.4253 49.6378 42.4466 48.945 43.5112Z" fill="#026000"/>
<path d="M66.9947 73.4962C66.8372 74.0079 66.4495 73.9226 66.1225 73.9226C65.8513 73.979 65.5692 73.9403 65.323 73.8129C65.2738 73.7646 65.2371 73.7049 65.216 73.6391C65.1949 73.5733 65.19 73.5034 65.2018 73.4352C65.2018 72.7773 65.2018 72.1194 65.2018 71.4614C65.1959 71.4013 65.2035 71.3406 65.2241 71.2838C65.2447 71.227 65.2778 71.1756 65.3208 71.1335C65.3639 71.0913 65.4159 71.0595 65.4729 71.0403C65.5299 71.0212 65.5904 71.0152 65.65 71.0228H68.8481C69.2236 71.0228 69.3326 71.2177 69.3205 71.5467C69.3205 72.2047 69.3205 72.8626 69.3205 73.5205C69.3205 74.1785 69.3205 74.3612 70.2048 74.3734C70.5804 74.3734 70.968 74.3734 71.3435 74.3734C71.7191 74.3734 72.034 74.5196 72.1673 74.1419C72.2797 73.7437 72.2797 73.3218 72.1673 72.9235C72.1673 72.7773 71.9735 72.7408 71.8402 72.7286C71.6347 72.7472 71.4279 72.7472 71.2224 72.7286C71.1497 72.7286 71.0649 72.5945 71.0528 72.5093C71.0439 72.4764 71.0419 72.442 71.047 72.4083C71.0521 72.3746 71.0642 72.3424 71.0824 72.3137C71.1007 72.2849 71.1248 72.2604 71.153 72.2416C71.1813 72.2229 71.2132 72.2103 71.2466 72.2047C71.3833 72.1867 71.5218 72.1867 71.6585 72.2047C72.8699 72.1437 72.8699 72.1437 72.8699 73.3621C72.8699 73.7886 72.8699 74.2028 72.8699 74.5805C72.8699 74.9582 72.6882 75.0679 72.3611 75.0679C71.3314 75.0679 70.2896 75.0679 69.2599 75.0679C68.8481 75.0679 68.7269 74.8608 68.7269 74.4831C68.7269 73.7886 68.7269 73.1063 68.7269 72.4118C68.7269 71.7173 68.7269 71.7417 68.097 71.7295C67.4671 71.7173 66.8856 71.7295 66.3405 71.7295C66.0013 71.7295 65.8317 71.8757 65.8317 72.229C65.8438 72.436 65.8438 72.6435 65.8317 72.8504C65.8317 73.2525 66.0013 73.4231 66.389 73.4109C66.4897 73.3773 66.5967 73.3676 66.7017 73.3824C66.8068 73.3972 66.907 73.4361 66.9947 73.4962Z" fill="#026000"/>
<path d="M58.1151 71.0228C58.6239 71.1202 59.4355 70.706 59.8716 71.2055C60.3077 71.7051 59.9806 72.4239 59.9928 73.0209C59.9928 74.5196 59.8474 74.3612 61.3132 74.3734C61.523 74.3856 61.7333 74.3856 61.9431 74.3734C62.2338 74.3734 62.6336 74.5196 62.8032 74.2028C62.9453 73.8121 62.9664 73.3874 62.8637 72.9844C62.8504 72.9153 62.8146 72.8527 62.762 72.8064C62.7093 72.76 62.6428 72.7326 62.573 72.7285H61.9552C61.8813 72.7285 61.8104 72.699 61.7582 72.6464C61.7059 72.5939 61.6766 72.5226 61.6766 72.4483C61.6766 72.374 61.7059 72.3027 61.7582 72.2501C61.8104 72.1976 61.8813 72.1681 61.9552 72.1681C62.3671 72.1681 62.7789 72.1681 63.1666 72.1681C63.5542 72.1681 63.4937 72.3874 63.4937 72.6189C63.4937 73.2768 63.4937 73.9347 63.4937 74.5927C63.4937 74.9582 63.2756 75.0557 62.9607 75.0557H59.8837C59.5324 75.0557 59.375 74.8973 59.375 74.5561C59.375 73.7885 59.375 73.0331 59.375 72.2655C59.375 71.8756 59.2175 71.7051 58.8298 71.7051H56.9643C56.613 71.7051 56.4797 71.8756 56.4797 72.2168C56.4797 72.5579 56.4797 72.6311 56.4797 72.8382C56.4797 73.0453 56.5888 73.3743 56.9522 73.3621C57.1213 73.3435 57.2919 73.3435 57.461 73.3621C57.4865 73.3651 57.5112 73.3732 57.5336 73.3859C57.556 73.3986 57.5756 73.4156 57.5914 73.436C57.6072 73.4564 57.6188 73.4798 57.6255 73.5048C57.6322 73.5297 57.6339 73.5558 57.6306 73.5814C57.6306 73.6789 57.5458 73.8007 57.4731 73.8251C57.0112 73.9672 56.5176 73.9672 56.0558 73.8251C55.9225 73.8251 55.8741 73.6301 55.8619 73.4839V71.437C55.8619 71.1324 56.0558 71.0228 56.3344 71.0228H58.1151Z" fill="#026000"/>
<path d="M52.2158 74.9826H51.0044C50.0111 74.9826 50.011 74.9826 50.011 73.9348C50.011 73.3743 50.011 72.8261 50.011 72.2656C50.011 71.7051 49.8899 71.6198 49.4175 71.632C48.945 71.6442 48.2061 71.632 47.5641 71.632C47.5033 71.624 47.4416 71.6302 47.3836 71.65C47.3256 71.6699 47.2729 71.7028 47.2296 71.7464C47.1862 71.79 47.1535 71.843 47.1337 71.9013C47.114 71.9596 47.1079 72.0217 47.1158 72.0828C47.1277 72.2532 47.1277 72.4242 47.1158 72.5946C47.1158 73.0576 47.2128 73.35 47.7458 73.3012C47.8779 73.2767 48.0134 73.2767 48.1455 73.3012C48.2061 73.3012 48.2424 73.3987 48.2667 73.4475C48.2815 73.4979 48.2788 73.552 48.259 73.6007C48.2391 73.6495 48.2034 73.6899 48.1576 73.7155C47.6696 73.8756 47.1436 73.8756 46.6555 73.7155C46.603 73.6715 46.5623 73.615 46.5369 73.5512C46.5115 73.4874 46.5023 73.4183 46.5101 73.35V71.498C46.5101 71.1203 46.704 71.0228 47.031 71.0228H50.1564C50.5804 71.0228 50.6773 71.2543 50.6773 71.6198C50.6773 72.3509 50.6773 73.0819 50.6773 73.8008C50.6773 74.1907 50.8106 74.3856 51.2103 74.3856H53.0759C53.4272 74.3856 53.5725 74.215 53.5604 73.8739V73.2525C53.5604 72.9235 53.4514 72.7164 53.088 72.7286C52.9188 72.7466 52.7483 72.7466 52.5792 72.7286C52.5448 72.725 52.5118 72.7136 52.4824 72.6953C52.453 72.6771 52.4281 72.6524 52.4095 72.6232C52.3908 72.5939 52.379 72.5608 52.3748 72.5263C52.3707 72.4919 52.3743 72.4569 52.3854 72.424C52.3854 72.3387 52.4944 72.2047 52.5671 72.2047C52.9705 72.1813 53.375 72.1813 53.7785 72.2047C53.8633 72.2188 53.9417 72.2593 54.0025 72.3205C54.0634 72.3817 54.1036 72.4605 54.1176 72.5458C54.1353 72.6466 54.1353 72.7497 54.1176 72.8504V74.8242C54.1105 74.8581 54.0959 74.8899 54.0749 74.9173C54.054 74.9447 54.0272 74.967 53.9965 74.9826C53.4042 75.0389 52.808 75.0389 52.2158 74.9826Z" fill="#026000"/>
<path d="M76.6492 70.9984C77.2912 71.1202 78.0907 70.7059 78.5268 71.2055C78.9629 71.705 78.648 72.4239 78.6601 73.0331C78.6601 74.5196 78.5026 74.349 79.9926 74.3733H80.5135C81.5916 74.3733 81.6038 74.3124 81.5674 73.2768C81.5674 72.6919 81.2282 72.6919 80.8164 72.6919C80.6589 72.6919 80.4408 72.6919 80.4166 72.4848C80.3924 72.2777 80.5862 72.1315 80.8042 72.0949H81.1192C82.1368 72.034 82.1973 72.0949 82.1731 73.0697C82.1731 73.6789 82.4517 74.4464 82.0035 74.8607C81.5553 75.275 80.8769 74.9704 80.2955 74.9947C79.714 75.0191 79.0841 74.9947 78.5268 74.9947C78.1755 74.9947 78.0423 74.8242 78.0423 74.483C78.0423 73.752 78.0423 73.0331 78.0423 72.3021C78.0423 71.571 78.0423 71.6685 77.376 71.6563C76.7098 71.6441 76.3464 71.6563 75.8255 71.6563C75.3046 71.6563 75.1834 71.6563 75.1471 72.2899C75.1471 72.4361 75.1471 72.5701 75.1471 72.7041C75.1471 73.1549 75.3046 73.3499 75.7528 73.3255C75.8895 73.3075 76.0279 73.3075 76.1646 73.3255C76.2152 73.3398 76.2584 73.373 76.2854 73.4183C76.3124 73.4636 76.3212 73.5176 76.31 73.5692C76.3065 73.6028 76.2961 73.6354 76.2794 73.6647C76.2627 73.6941 76.2401 73.7197 76.2131 73.7398C75.9807 73.8447 75.7289 73.8989 75.4742 73.8989C75.2194 73.8989 74.9676 73.8447 74.7352 73.7398C74.6545 73.6735 74.5954 73.5843 74.5656 73.4839C74.5414 73.3797 74.5414 73.2713 74.5656 73.1671C74.5656 72.4848 74.2749 71.6319 74.6989 71.1568C75.1229 70.6816 75.9829 71.1202 76.6492 70.9984Z" fill="#026000"/>
<path d="M56.5404 74.9826C55.9953 74.8851 55.1958 75.2872 54.7597 74.7998C54.3236 74.3125 54.6385 73.5814 54.6385 72.9844C54.6385 71.4858 54.7597 71.6442 53.306 71.632H52.6761C51.7918 71.632 51.4647 72.095 51.7676 72.9357C51.9008 73.3256 52.2279 73.289 52.5307 73.3134C52.8336 73.3378 52.8941 73.3134 52.9063 73.5814C52.9184 73.8495 52.7245 73.8982 52.5065 73.9104H52.0946C51.2103 73.9104 51.1376 73.9104 51.1134 72.9844C51.1134 72.5336 51.1134 72.0828 51.1134 71.632C51.1134 71.1812 51.2345 70.9984 51.6949 70.9984C52.7003 70.9984 53.6937 70.9984 54.6991 70.9984C55.0867 70.9984 55.2563 71.169 55.2563 71.5589C55.2563 72.2899 55.2563 73.021 55.2563 73.7398C55.2563 74.1906 55.438 74.3734 55.8741 74.3612C56.3102 74.349 57.0855 74.3612 57.6306 74.3612C58.0304 74.3612 58.1879 74.1541 58.1637 73.7764V73.6545C58.1637 72.8991 58.1637 72.8991 57.4126 72.6554C57.2793 72.6554 57.1582 72.558 57.1461 72.3996C57.134 72.2412 57.2672 72.0828 57.4489 72.0706H58.1758C58.624 72.0706 58.7936 72.2412 58.7815 72.6798C58.7693 73.1184 58.7815 73.7886 58.7815 74.3368C58.7815 74.8851 58.7815 74.946 58.091 74.9704L56.5404 74.9826Z" fill="#026000"/>
<path d="M28.7754 74.9825H27.3218C26.6555 74.9825 26.6555 74.9825 26.6313 74.2514C26.607 73.5204 26.6313 72.9356 26.6313 72.2654C26.6313 71.8512 26.5222 71.6197 26.0498 71.6319C25.5774 71.644 24.8384 71.6319 24.1843 71.6319C23.8935 71.6319 23.7482 71.7781 23.7361 72.0827C23.724 72.3873 23.7361 72.4238 23.7361 72.5944C23.7361 73.0574 23.8209 73.3498 24.3539 73.3011C24.4902 73.2774 24.6295 73.2774 24.7657 73.3011C24.7657 73.3011 24.8627 73.3864 24.8869 73.4473C24.9042 73.4977 24.9027 73.5526 24.8826 73.602C24.8626 73.6513 24.8253 73.6916 24.7779 73.7153C24.3312 73.8975 23.8315 73.8975 23.3848 73.7153C23.3022 73.6815 23.2327 73.6217 23.1869 73.5448C23.141 73.4679 23.1212 73.3781 23.1304 73.2889C23.1304 72.6309 23.1304 71.973 23.1304 71.3151C23.1304 70.9983 23.3242 70.9008 23.6028 70.9008H26.7161C27.1158 70.9008 27.2612 71.0958 27.2491 71.4735C27.2491 72.168 27.2491 72.8624 27.2491 73.5569C27.2491 74.2514 27.2491 74.2392 27.9638 74.2514C28.6785 74.2636 29.0056 74.2514 29.5144 74.2514C30.0231 74.2514 30.1806 74.1174 30.1443 73.6544C30.1322 73.48 30.1322 73.3049 30.1443 73.1305C30.1443 72.7406 29.9868 72.5578 29.5871 72.57C29.4503 72.5879 29.3119 72.5879 29.1752 72.57C29.0783 72.57 28.9692 72.4969 28.9935 72.3629C29.0024 72.2632 29.0504 72.1712 29.1267 72.107C29.5762 71.9365 30.0673 71.911 30.5319 72.0339C30.6046 72.0339 30.6773 72.168 30.7258 72.2532C30.7443 72.321 30.7443 72.3926 30.7258 72.4604C30.7258 73.2158 31.0165 74.1174 30.6046 74.69C30.1927 75.2627 29.3448 74.8728 28.7754 74.9825Z" fill="#026000"/>
<path d="M19.4842 74.9825H18.2001C17.3158 74.9825 17.3158 74.9825 17.3037 74.0443C17.3037 73.4473 17.3037 72.8259 17.3037 72.2654C17.3037 71.8512 17.1825 71.6197 16.7222 71.6319C16.2619 71.644 15.5108 71.6319 14.8567 71.6319C14.7954 71.6212 14.7326 71.6254 14.6733 71.6443C14.6141 71.6632 14.5602 71.6961 14.5163 71.7403C14.4724 71.7845 14.4396 71.8387 14.4209 71.8983C14.4021 71.9578 14.3978 72.0211 14.4085 72.0827C14.4203 72.253 14.4203 72.424 14.4085 72.5944C14.4085 73.0574 14.5054 73.3498 15.0384 73.3011C15.1705 73.2766 15.306 73.2766 15.4381 73.3011C15.4381 73.3011 15.535 73.3864 15.5593 73.4473C15.5803 73.4959 15.582 73.5509 15.564 73.6008C15.546 73.6506 15.5096 73.6916 15.4624 73.7153C15.0116 73.8983 14.5079 73.8983 14.0572 73.7153C13.978 73.678 13.9122 73.6171 13.8689 73.5407C13.8255 73.4644 13.8066 73.3764 13.8149 73.2889C13.8149 72.6309 13.8149 71.973 13.8149 71.3151C13.8149 70.9983 14.0208 70.9008 14.2994 70.9008H17.3764C17.7882 70.9008 17.9336 71.0836 17.9215 71.4735C17.9215 72.172 17.9215 72.8665 17.9215 73.5569C17.9215 74.2271 17.9215 74.2392 18.6483 74.2514C19.1571 74.2514 19.678 74.2514 20.1989 74.2514C20.7198 74.2514 20.853 74.1174 20.8167 73.6544C20.8167 73.4838 20.8167 73.3133 20.8167 73.1305C20.8167 72.7406 20.6713 72.5578 20.2716 72.57C20.1349 72.5882 19.9964 72.5882 19.8597 72.57C19.7628 72.57 19.6538 72.4969 19.6659 72.3629C19.678 72.2289 19.6659 72.1436 19.7991 72.107C20.2537 71.9409 20.7473 71.9155 21.2164 72.0339C21.2891 72.0339 21.3497 72.168 21.3981 72.2532C21.4173 72.3209 21.4173 72.3927 21.3981 72.4604C21.3981 73.2158 21.6768 74.1174 21.2649 74.69C20.853 75.2627 20.0051 74.8728 19.4842 74.9825Z" fill="#026000"/>
<path d="M47.2611 74.9825C46.8008 74.9825 46.3526 74.9825 45.9044 74.9825C45.4562 74.9825 45.2866 74.8363 45.2987 74.3855C45.2987 73.6545 45.2987 72.9234 45.2987 72.1924C45.2987 71.7903 45.1291 71.6319 44.7414 71.6319H42.9728C42.5973 71.6319 42.3792 71.766 42.4035 72.1802C42.4154 72.3506 42.4154 72.5216 42.4035 72.6919C42.4035 73.1427 42.5731 73.3377 43.0092 73.3133C43.1447 73.282 43.2855 73.282 43.421 73.3133C43.464 73.3345 43.5016 73.3653 43.531 73.4033C43.5604 73.4413 43.5808 73.4855 43.5906 73.5326C43.5995 73.5664 43.6011 73.6017 43.5953 73.6361C43.5895 73.6706 43.5763 73.7033 43.5568 73.7322C43.5373 73.7611 43.5118 73.7855 43.4821 73.8036C43.4524 73.8217 43.4192 73.8332 43.3847 73.8372C43.1789 73.8494 42.9726 73.8494 42.7669 73.8372C41.8826 73.8372 41.8099 73.8372 41.7978 72.9112C41.7978 72.4239 41.7978 71.9365 41.7978 71.4492C41.7829 71.381 41.785 71.3103 41.8036 71.2431C41.8223 71.1759 41.8571 71.1144 41.9049 71.0639C41.9528 71.0133 42.0122 70.9754 42.078 70.9534C42.1438 70.9313 42.2139 70.9259 42.2823 70.9374H45.3956C45.8075 70.9374 45.9407 71.1446 45.9286 71.5223C45.9286 72.2208 45.9286 72.9153 45.9286 73.6057C45.9286 74.2515 45.9286 74.2759 46.5706 74.288C47.2127 74.3002 47.782 74.288 48.3271 74.288C48.3952 74.3013 48.4654 74.2975 48.5317 74.2771C48.598 74.2566 48.6583 74.2202 48.7073 74.1709C48.7563 74.1216 48.7926 74.0609 48.8129 73.9943C48.8332 73.9276 48.8369 73.857 48.8238 73.7885V73.4717C48.8238 72.8016 48.8238 72.8016 48.1575 72.6188C47.9758 72.6188 47.8062 72.5214 47.8062 72.3142C47.8062 72.1071 47.9758 72.034 48.1575 72.0096H48.2666C49.3568 71.9 49.4779 72.0096 49.4779 73.0696C49.4779 73.4595 49.4779 73.8372 49.4779 74.288C49.4779 74.946 49.4779 74.9582 48.7511 74.9704L47.2611 74.9825Z" fill="#026000"/>
<path d="M39.4115 71.0228C39.9566 71.108 40.7561 70.7182 41.1922 71.2055C41.6283 71.6929 41.3134 72.4239 41.3255 73.0209C41.3255 74.5196 41.1922 74.3612 42.658 74.3734H43.2879C44.2449 74.3734 44.2449 74.3734 44.2449 73.3743C44.2449 72.8869 44.0874 72.6432 43.5908 72.692C43.4546 72.7034 43.3177 72.6826 43.191 72.631C43.1508 72.6033 43.117 72.5672 43.0919 72.5252C43.0668 72.4831 43.0511 72.4361 43.0457 72.3874C43.0457 72.3021 43.1305 72.1559 43.191 72.1437C43.6292 72.0399 44.0854 72.0399 44.5235 72.1437C44.6248 72.1745 44.7119 72.2403 44.7696 72.3295C44.8272 72.4187 44.8516 72.5255 44.8385 72.631C44.8385 73.2524 44.8385 73.8495 44.8385 74.5074C44.8385 74.8729 44.6326 74.9826 44.3176 74.9826H41.2165C40.8652 74.9826 40.7198 74.8242 40.7198 74.483C40.7198 73.752 40.7198 73.0209 40.7198 72.2899C40.7198 71.5589 40.7198 71.6563 40.0535 71.6441C39.3873 71.632 39.0239 71.6441 38.503 71.6441C37.9821 71.6441 37.8609 71.6441 37.8246 72.2777C37.8306 72.3832 37.8306 72.489 37.8246 72.5945C37.8246 73.0331 37.8852 73.3499 38.4303 73.3134C38.6362 73.3134 38.8785 73.3134 38.8422 73.6423C38.8058 73.9713 38.5635 73.9104 38.3576 73.9226H38.0426C37.231 73.9226 37.2189 73.9226 37.2068 73.1306C37.2068 72.6067 37.2068 72.0828 37.2068 71.5589C37.2068 71.0349 37.3885 71.0106 37.7761 71.0106L39.4115 71.0228Z" fill="#026000"/>
<path d="M37.994 74.9825H36.6494C35.9953 74.9825 35.9831 74.9825 35.971 74.2515C35.9589 73.5204 35.971 73.0331 35.971 72.3873C35.971 71.7416 35.971 71.6563 35.1957 71.6319H33.8027C33.5725 71.6319 33.306 71.571 33.1727 71.8634C33.0851 72.3011 33.1101 72.754 33.2454 73.1793C33.4514 73.3498 33.7057 73.2646 33.9359 73.3011C34.1661 73.3377 34.2993 73.3011 34.3114 73.5692C34.3235 73.8372 34.1055 73.8859 33.8996 73.8981H33.4877C32.5913 73.8981 32.5307 73.8981 32.5065 72.9721C32.5065 72.5213 32.5065 72.0705 32.5065 71.6197C32.5065 71.1689 32.6397 70.9861 33.0879 70.9861C34.0934 70.9861 35.0867 70.9861 36.0922 70.9861C36.4798 70.9861 36.6494 71.1567 36.6494 71.5466C36.6494 72.2777 36.6494 72.9965 36.6494 73.7276C36.6494 74.1662 36.8069 74.3611 37.2551 74.3489C37.7033 74.3368 38.4665 74.3489 39.0116 74.3489C39.5567 74.3489 39.581 74.1662 39.5567 73.7763C39.5567 73.6423 39.5567 73.5082 39.5567 73.362C39.5567 72.899 39.4598 72.631 38.9389 72.6554C38.7209 72.6554 38.5028 72.6554 38.5513 72.3142C38.5997 71.9731 38.7572 72.0705 38.9389 72.0583H39.4477C40.1382 72.0583 40.1503 72.0583 40.1745 72.7528C40.1988 73.4473 40.1745 73.8616 40.1745 74.4099C40.1745 74.9581 40.0049 74.9703 39.6173 74.9581C39.2297 74.946 38.5149 74.9825 37.994 74.9825Z" fill="#026000"/>
<path d="M33.3787 74.9826C32.8941 74.9826 32.4096 74.9826 31.925 74.9826C31.4405 74.9826 31.3799 74.7998 31.3799 74.4221C31.3799 73.7276 31.3799 73.0209 31.3799 72.3264C31.3799 71.6319 31.3799 71.6563 30.75 71.6441C30.1201 71.6319 29.5386 71.6441 28.9935 71.6441C28.6543 71.6441 28.4726 71.7782 28.4847 72.1315C28.4847 72.2777 28.4847 72.4117 28.4847 72.5457C28.4847 73.0453 28.5695 73.3621 29.1509 73.3255C29.193 73.3141 29.2372 73.3127 29.28 73.3215C29.3227 73.3304 29.3628 73.3492 29.3969 73.3764C29.4311 73.4037 29.4584 73.4387 29.4767 73.4785C29.495 73.5183 29.5038 73.5619 29.5022 73.6058C29.5022 73.8129 29.3448 73.886 29.1509 73.9104H29.054C27.9638 74.02 27.8427 73.9104 27.8427 72.8382C27.8427 72.4605 27.8427 72.0828 27.8427 71.6929C27.8427 71.0471 27.8427 71.0227 28.4605 71.0106C29.4296 71.0106 30.3987 71.0106 31.3678 71.0106C31.8039 71.0106 31.9977 71.169 31.9856 71.6198C31.9856 72.3508 31.9856 73.0818 31.9856 73.8129C31.9856 74.2028 32.1552 74.3734 32.5549 74.3734C32.9547 74.3734 33.7663 74.3734 34.3114 74.3734C34.687 74.3734 34.905 74.2393 34.8929 73.8251C34.8808 73.6547 34.8808 73.4837 34.8929 73.3133C34.8929 72.8625 34.7354 72.6676 34.2872 72.692C34.1515 72.7216 34.011 72.7216 33.8753 72.692C33.8338 72.6688 33.7974 72.6375 33.7682 72.5998C33.7391 72.5621 33.7178 72.5188 33.7058 72.4726C33.6945 72.4388 33.6912 72.4029 33.696 72.3675C33.7009 72.3322 33.7138 72.2985 33.7337 72.269C33.7536 72.2395 33.7801 72.2151 33.8109 72.1976C33.8418 72.1801 33.8763 72.17 33.9117 72.168C34.2909 72.1436 34.6712 72.1436 35.0504 72.168C35.1108 72.1678 35.1707 72.1803 35.2261 72.2046C35.2815 72.2288 35.3313 72.2645 35.3724 72.3092C35.4134 72.3538 35.4447 72.4066 35.4643 72.4641C35.484 72.5216 35.4915 72.5826 35.4865 72.6432C35.4865 73.3133 35.4865 73.9713 35.4865 74.6292C35.4865 74.9338 35.2927 75.0435 35.014 75.0435L33.3787 74.9826Z" fill="#026000"/>
<path d="M81.3132 71.0228H82.8637C83.2635 71.0228 83.4089 71.2177 83.4089 71.5954C83.4089 72.1924 83.4089 72.8138 83.4089 73.3743C83.4089 74.3734 83.4089 74.3734 84.4507 74.3856C84.6929 74.3856 84.9352 74.3856 85.1775 74.3856C85.4198 74.3856 85.868 74.5196 86.0497 74.215C86.1892 73.821 86.1892 73.3906 86.0497 72.9966C85.9891 72.6676 85.6863 72.7407 85.4561 72.7163C85.2259 72.692 85.0321 72.6432 85.0806 72.3508C85.129 72.0584 85.3107 72.1193 85.4803 72.1071H86.0012C86.6675 72.1071 86.6917 72.1071 86.716 72.8138C86.7402 73.5205 86.716 73.8616 86.716 74.3734C86.716 74.8851 86.5948 75.0191 86.1345 75.0191C85.1977 75.0191 84.2649 75.0191 83.3362 75.0191C82.8759 75.0191 82.7305 74.812 82.7305 74.3856C82.7305 73.6911 82.7305 72.9966 82.7305 72.3021C82.7305 71.8756 82.6094 71.6442 82.149 71.6563C81.6887 71.6685 80.9376 71.6563 80.2835 71.6563C80.2228 71.6483 80.161 71.6545 80.103 71.6743C80.045 71.6942 79.9923 71.7271 79.949 71.7707C79.9057 71.8143 79.8729 71.8673 79.8532 71.9256C79.8335 71.9839 79.8273 72.0461 79.8353 72.1071C79.8353 72.2412 79.8353 72.3874 79.8353 72.5214C79.8353 72.9722 79.8353 73.3743 80.4652 73.3255C80.6833 73.3255 80.9013 73.3865 80.8529 73.6789C80.8044 73.9713 80.6227 73.9226 80.4531 73.9226H79.8353C79.3871 73.9226 79.2054 73.752 79.2175 73.3134C79.2296 72.8747 79.2175 72.2046 79.2175 71.6442C79.2175 71.0837 79.3507 70.9984 79.8111 71.0106C80.2714 71.0228 80.8286 71.0228 81.3132 71.0228Z" fill="#026000"/>
<path d="M66.0134 74.9826H64.4507C64.0994 74.9826 63.9661 74.812 63.9661 74.4709C63.9661 73.7764 63.9661 73.0819 63.9661 72.3874C63.9661 71.6929 63.9661 71.6564 63.1787 71.632H61.7251C61.3374 71.632 61.0709 71.632 61.0588 72.1803C61.0588 72.9722 61.0588 73.1794 61.6282 73.3012C61.7614 73.3012 61.9068 73.3012 62.04 73.3012C62.0744 73.3049 62.1075 73.3162 62.1368 73.3345C62.1662 73.3527 62.1911 73.3774 62.2098 73.4066C62.2284 73.4359 62.2402 73.469 62.2444 73.5035C62.2485 73.5379 62.2449 73.5729 62.2339 73.6058C62.2339 73.6911 62.1248 73.8251 62.0643 73.8251C61.6887 73.8251 61.3011 73.8251 60.9256 73.8251C60.8572 73.8205 60.7924 73.7926 60.7418 73.7462C60.6912 73.6997 60.6577 73.6373 60.6469 73.5693C60.6291 73.4644 60.6291 73.3573 60.6469 73.2525C60.6469 72.5336 60.3562 71.6564 60.7923 71.1325C61.2284 70.6085 62.0885 70.9984 62.7669 70.9497C63.2151 70.9497 63.6633 70.9497 64.1115 70.9497C64.5597 70.9497 64.6203 71.0959 64.6203 71.4492C64.6203 72.1478 64.6203 72.8423 64.6203 73.5327C64.6203 74.2638 64.6203 74.2759 65.3834 74.2881C65.868 74.2881 66.3526 74.2881 66.825 74.2881C67.2974 74.2881 67.4913 74.2881 67.5155 73.6545C67.5585 73.3842 67.5585 73.1086 67.5155 72.8382C67.3943 72.5093 67.0309 72.6798 66.7765 72.5945C66.7092 72.5799 66.6496 72.5406 66.6093 72.4844C66.5691 72.4281 66.5509 72.3588 66.5585 72.2899C66.5616 72.221 66.5911 72.1559 66.6407 72.1082C66.6904 72.0606 66.7564 72.034 66.825 72.0341H67.1278C68.1454 71.9732 68.206 72.0341 68.1817 73.0088C68.1817 73.618 68.4725 74.3856 68.0122 74.7998C67.5518 75.2141 66.8856 74.8973 66.3162 74.9339L66.0134 74.9826Z" fill="#026000"/>
<path d="M20.5623 71.0228H22.1129C22.5127 71.0228 22.6701 71.1934 22.6701 71.5954C22.6701 72.3143 22.6701 73.0453 22.6701 73.7764C22.6701 74.215 22.8397 74.3978 23.2758 74.3856C23.7119 74.3734 24.3903 74.3856 24.9354 74.3856C25.4806 74.3856 25.5411 74.3856 25.5654 73.7033C25.5654 73.5693 25.5654 73.423 25.5654 73.289C25.5654 72.8991 25.4321 72.7164 25.0323 72.7164C24.6326 72.7164 24.3782 72.8138 24.3903 72.3996C24.4024 71.9853 24.7901 72.1315 25.0445 72.1072H25.5654C25.8561 72.1072 26.0136 72.2534 26.0136 72.5458C26.0136 73.2037 26.0136 73.8617 26.0136 74.5318C26.0136 74.812 25.8924 74.9948 25.5896 74.9948H22.5006C22.1371 74.9948 22.0523 74.7511 22.0523 74.4465C22.0523 73.7155 22.0523 72.9844 22.0523 72.2534C22.0523 71.8147 21.8827 71.632 21.4466 71.6442C21.0106 71.6564 20.2353 71.6442 19.6901 71.6442C19.2904 71.6442 19.1329 71.8391 19.145 72.229C19.1629 72.3991 19.1629 72.5706 19.145 72.7407C19.145 73.3256 19.5084 73.3134 19.8961 73.3378C19.9305 73.3361 19.9649 73.3415 19.9972 73.3536C20.0294 73.3657 20.0589 73.3843 20.0838 73.4082C20.1088 73.4322 20.1286 73.4609 20.1421 73.4928C20.1557 73.5247 20.1626 73.559 20.1626 73.5936C20.1626 73.8129 20.0414 73.8982 19.8597 73.9226H19.1329C18.6847 73.9226 18.5151 73.7398 18.5272 73.3012C18.5393 72.8626 18.5272 72.1925 18.5272 71.6442C18.5272 71.0959 18.6605 70.9984 19.1208 71.0106C19.5811 71.0228 20.0778 71.0228 20.5623 71.0228Z" fill="#026000"/>
<path d="M71.9614 71.0228H73.4029C73.7542 71.0228 73.9117 71.1812 73.9117 71.5223C73.9117 72.2534 73.9117 72.9844 73.9117 73.7155C73.9117 74.4465 73.9117 74.349 74.5658 74.3612C75.22 74.3734 75.6076 74.3612 76.1285 74.3612C76.6494 74.3612 76.7706 74.3612 76.7948 73.7155C76.7948 73.618 76.7948 73.5083 76.7948 73.4109C76.7948 72.96 76.71 72.6554 76.177 72.692C75.9589 72.692 75.7409 72.692 75.7772 72.3508C75.8136 72.0097 76.0437 72.095 76.2497 72.0828H76.5646C77.3762 72.0828 77.3884 72.0828 77.4005 72.8748C77.4005 73.3987 77.4005 73.9104 77.4005 74.4343C77.4005 74.9582 77.2188 74.9948 76.8311 74.9826C75.862 74.9826 74.8929 74.9826 73.9238 74.9826C73.5846 74.9826 73.4271 74.8364 73.4271 74.483C73.4271 73.7886 73.4271 73.0941 73.4271 72.3996C73.4271 71.7051 73.4271 71.6564 72.664 71.632H71.2345C71.0044 71.632 70.7379 71.5711 70.6046 71.8635C70.5082 72.3005 70.5334 72.7558 70.6773 73.1794C70.8105 73.3134 70.9923 73.2768 71.1619 73.3012C71.3314 73.3256 71.6101 73.3012 71.5737 73.6302C71.5374 73.9591 71.2951 73.8982 71.0892 73.9104H70.7742C69.9747 73.9104 69.9505 73.9104 69.9384 73.1184C69.9384 72.5945 69.9384 72.0706 69.9384 71.5467C69.9384 71.0228 70.1201 70.9984 70.5077 70.9984L71.9614 71.0228Z" fill="#026000"/>
<path d="M13.0275 70.9984C13.2051 71.6567 13.2666 72.3413 13.2092 73.021C13.2092 74.4952 13.0638 74.3612 14.5417 74.3734H15.0262C16.0923 74.3734 16.1286 74.3003 16.0801 73.2646C16.0801 72.7895 15.8258 72.6798 15.426 72.692C15.2564 72.692 15.0747 72.692 15.0505 72.4239C15.0262 72.1559 15.2564 72.095 15.4745 72.0828H16.0923C16.5405 72.0828 16.7101 72.2534 16.6979 72.692C16.6858 73.1306 16.6979 73.9104 16.6979 74.4709C16.6979 74.7998 16.5647 74.9826 16.2013 74.9826C15.2079 74.9826 14.2025 74.9826 13.197 74.9826C12.9184 74.9826 12.7246 74.8729 12.7246 74.5683L12.761 71.2177C12.761 71.2177 12.8579 71.1446 13.0275 70.9984Z" fill="#026000"/>
<path d="M66.7402 45.022H70.3744V54.7693H69.7687C69.7687 54.7693 70.6288 46.3623 66.7402 45.022Z" fill="#026000"/>
<path d="M69.8049 57.2061H70.3864V59.716L69.9866 60.118H68.2786V59.5576C68.5423 59.5245 68.7956 59.434 69.021 59.2924C69.2464 59.1508 69.4384 58.9615 69.5837 58.7377C69.729 58.5139 69.824 58.2609 69.8622 57.9964C69.9004 57.7319 69.8809 57.4622 69.8049 57.2061Z" fill="#026000"/>
</svg>
