<svg width="1440" height="1435" viewBox="0 0 1440 1435" fill="none" xmlns="http://www.w3.org/2000/svg">
<path d="M899.865 328.533C899.599 328.8 899.599 332.133 899.732 335.867L900.265 342.667H938.132H976.132L975.732 335.6L975.332 328.667L937.865 328.267C917.332 328.133 900.265 328.267 899.865 328.533Z" fill="#04367B"/>
<path d="M1045.33 335.333V342.667L1085.07 342.4L1124.67 342V335.333V328.667L1085.07 328.267L1045.33 328V335.333Z" fill="#04367B"/>
<path d="M525.331 330.267C518.931 331.467 489.597 339.867 482.664 342.667C440.531 359.2 400.664 389.467 373.331 425.333C340.531 468.533 322.797 521.2 322.797 576C322.664 651.2 353.997 718.8 411.997 768.667C426.264 780.933 443.731 792 464.664 802.133C490.797 814.8 511.197 820.933 539.864 824.933C555.464 827.2 577.197 827.333 840.664 827.333H1124.66V789.333V751.333L837.331 750.667L549.997 749.867L536.797 746.933C478.664 733.6 431.997 693.867 410.931 640C391.197 589.6 396.664 530.4 425.197 485.333C435.331 469.2 438.664 465.067 451.597 452.4C473.464 430.933 500.797 415.733 533.064 407.2C534.264 406.8 534.664 397.867 534.664 368V329.333L531.731 329.467C529.997 329.6 527.197 330 525.331 330.267Z" fill="#04367B"/>
<path d="M612.267 368.133L612.667 406.933L624.001 410.267C661.067 420.933 697.467 448.4 719.467 482.267C735.067 506.533 744.801 535.467 746.267 562.267L747.067 576H785.467H824.001V571.6C824.001 560.933 820.934 536.667 817.867 522.667C805.734 468.4 776.801 420.8 733.334 383.867C715.067 368.267 687.467 352.133 663.067 342.667C652.534 338.533 618.934 329.333 614.401 329.333C612.134 329.333 612.001 331.333 612.267 368.133Z" fill="#04367B"/>
<path d="M903.732 355.6C900.932 356 899.998 356.933 899.865 359.467C899.732 361.2 899.732 364.267 899.598 366.267L899.465 370H937.465H975.332L975.732 363.2C976.132 356.533 975.998 356.4 971.865 355.467C967.332 354.667 909.732 354.667 903.732 355.6Z" fill="#04367B"/>
<path d="M1047.07 355.467C1046 356 1045.33 358.933 1045.33 363.467V370.667L1085.07 370.4L1124.67 370L1125.07 364.267C1125.33 361.067 1124.8 357.6 1124 356.667C1122.8 355.2 1115.2 354.8 1085.6 354.8C1065.33 354.8 1047.87 355.2 1047.07 355.467Z" fill="#04367B"/>
<path d="M899.731 391.467C899.464 396.667 899.864 400.533 900.664 400.8C901.464 401.2 918.531 401.2 938.664 401.067L975.331 400.667V392V383.333L937.731 382.933L900.264 382.667L899.731 391.467Z" fill="#04367B"/>
<path d="M1045.33 392V401.333L1084.93 401.067L1124.67 400.667V392V383.333L1085.07 382.933L1045.33 382.667V392Z" fill="#04367B"/>
<path d="M899.732 420.267C899.599 424.133 899.465 429.333 899.732 431.733L900.132 436L937.732 435.733L975.332 435.333V424.667V414L937.732 413.6L900.265 413.333L899.732 420.267Z" fill="#04367B"/>
<path d="M1045.33 424.667V436L1084.93 435.733L1124.53 435.333L1124.67 424.667V414L1085.07 413.6L1045.33 413.333V424.667Z" fill="#04367B"/>
<path d="M899.731 460.8C899.464 468.667 899.864 473.867 900.664 474.133C901.464 474.533 918.531 474.533 938.664 474.4L975.331 474L975.731 460.933L976.131 448H938.131H900.131L899.731 460.8Z" fill="#04367B"/>
<path d="M1045.33 461.333V474.667L1084.93 474.4L1124.53 474L1125.07 464.267C1125.33 458.933 1125.2 453.067 1124.8 451.2L1124 448H1084.67H1045.33V461.333Z" fill="#04367B"/>
<path d="M554.665 482.133C525.199 488.4 500.265 507.6 487.199 533.867C480.265 548.133 477.332 560.267 477.332 576.267C477.332 592.533 480.265 605.2 487.599 620C492.799 630.533 495.599 634.533 505.199 644C517.999 656.667 526.799 662.267 541.065 667.333C563.199 675.067 585.332 674.8 606.799 666.533C620.932 661.2 630.132 655.333 639.865 645.6C650.932 634.533 654.265 629.867 659.999 618C667.199 602.667 668.665 595.467 668.532 574.667C668.399 557.867 668.132 555.867 664.132 545.467C658.799 531.2 652.932 521.467 643.332 510.933C621.599 487.2 585.465 475.467 554.665 482.133Z" fill="#04367B"/>
<path d="M899.731 499.6C899.465 506.8 899.465 514 899.731 515.733L900.131 518.667L937.731 518.4L975.331 518V502.667V487.333L937.731 486.933L900.131 486.667L899.731 499.6Z" fill="#04367B"/>
<path d="M1045.6 502.267L1046 518H1085.33H1124.67V502.667V487.333L1084.93 486.933L1045.2 486.667L1045.6 502.267Z" fill="#04367B"/>
<path d="M900 547.6V564.667L937.6 564.4L975.333 564.133V547.733V531.333L937.733 530.933L900 530.667V547.6Z" fill="#04367B"/>
<path d="M1045.33 547.333C1045.33 556.533 1045.73 564 1046.4 564C1046.93 564 1064.53 564.133 1085.6 564.4C1110.27 564.533 1124.13 564.133 1124.4 563.333C1125.33 560.667 1125.47 536 1124.67 533.333C1123.87 530.667 1122.93 530.667 1084.53 530.667H1045.33V547.333Z" fill="#04367B"/>
<path d="M900 597.067V617.333L937.733 617.067L975.333 616.667V596.933V577.2L937.6 576.933L900 576.667V597.067Z" fill="#04367B"/>
<path d="M1046.53 577.467C1045.73 577.867 1045.47 586.533 1045.6 597.467L1046 616.667H1085.33H1124.67L1124.93 597.733C1125.07 587.2 1124.67 578.4 1124 578C1122.4 576.933 1048.13 576.4 1046.53 577.467Z" fill="#04367B"/>
<path d="M900 651.333V673.333L937.733 673.067L975.333 672.667L975.733 650.933L976 629.333H938H900V651.333Z" fill="#04367B"/>
<path d="M1045.33 651.333V673.333L1085.07 673.067L1124.67 672.667L1125.07 655.333C1125.33 645.733 1125.07 636 1124.67 633.6L1123.87 629.333H1084.67H1045.33V651.333Z" fill="#04367B"/>
<path d="M1045.6 711.6L1046 738H1085.33H1124.67V712V686L1084.93 685.6L1045.33 685.333L1045.6 711.6Z" fill="#04367B"/>
<path d="M649.6 885.333C646 888.667 646 889.2 649.466 893.2L652.133 896.4L655.333 893.333C659.333 889.6 659.333 889.2 656.133 885.6C653.2 882 653.2 882 649.6 885.333Z" fill="#04367B"/>
<path d="M1048.93 885.067C1046 888.267 1046.13 889.733 1049.06 892.4C1052.13 895.2 1052.26 895.2 1056 892L1059.06 889.333L1062.26 892.267C1064.66 894.533 1066 894.933 1067.6 893.867C1071.86 891.2 1072.8 888.4 1070.13 885.467C1067.6 882.667 1064 881.733 1064 883.733C1064 884.267 1062.8 885.467 1061.2 886.4C1058.8 888 1058 887.867 1055.46 885.467C1051.86 882 1051.6 882 1048.93 885.067Z" fill="#04367B"/>
<path d="M202.931 893.733L198.664 896.667L199.464 918C199.864 929.733 200.797 941.2 201.464 943.6C203.464 950 207.731 952 218.931 952C230.397 952 233.331 950.4 237.464 942.267C239.864 937.733 240.264 935.2 239.731 927.733C238.797 914.933 235.197 911.333 230.131 918.267C227.864 921.333 227.864 922.267 229.197 926.267C231.331 932 230.131 933.467 222.397 934.267C212.931 935.333 211.997 933.6 211.997 914.8C211.997 897.333 211.064 890.667 208.797 890.8C207.997 890.8 205.331 892.133 202.931 893.733Z" fill="#04367B"/>
<path d="M441.6 893.733L437.066 896.667L438 918.667C438.933 942.667 440.4 948.533 446 950.667C448 951.467 455.6 952 463.066 952C478.266 952 481.066 950.933 484.933 943.6C488 937.6 488 923.333 484.8 917.467L482.4 912.933L479.066 916.8C475.866 920.533 475.733 921.733 478 928.933C479.2 932.933 474.8 934.667 463.866 934.667C452 934.667 450.666 933.6 450.666 923.467C450.666 907.867 448.933 890.667 447.466 890.8C446.666 890.8 444 892.133 441.6 893.733Z" fill="#04367B"/>
<path d="M678.665 893.333C676.798 894.8 674.531 896 673.465 896C672.131 896 671.865 897.467 672.398 901.6C672.931 904.8 673.598 915.067 674.131 924.667C675.331 948.933 677.331 952 691.598 952C696.798 952 700.665 951.2 703.465 949.467C707.331 947.067 707.598 947.067 710.531 949.467C714.531 952.8 720.265 952.667 723.331 949.333C725.731 946.8 725.731 946.8 729.331 949.333C734.131 952.667 738.798 952.667 743.065 949.333C745.998 947.067 746.531 946.933 747.998 948.667C751.998 953.467 765.065 952.8 768.131 947.733C768.798 946.533 771.198 947.2 776.131 949.867C782.931 953.6 783.198 953.733 787.331 951.467C792.798 948.533 794.665 944.4 794.665 935.867C794.665 928.8 793.331 925.2 788.931 920.267C783.598 914.533 777.465 916.933 768.798 928.267C762.265 936.933 750.131 936.133 749.065 927.067C748.798 924.4 747.865 923.2 745.865 922.933C743.465 922.533 742.798 923.467 742.131 927.2C740.531 936 731.865 936.533 729.998 928C729.465 925.333 728.265 924 726.665 924C725.065 924 723.865 925.333 723.331 928C721.598 936.133 712.665 936 711.065 927.867C710.531 924.8 709.731 924 707.598 924.267C705.865 924.533 704.531 926 703.998 928C702.531 934 690.531 936.933 687.865 932C687.198 930.933 686.398 921.2 685.865 910.267C685.065 889.467 684.665 888.667 678.665 893.333ZM786.131 931.2C787.331 936 785.865 937.733 782.265 935.867C776.531 932.8 776.531 928 782.131 928C784.398 928 785.465 928.933 786.131 931.2Z" fill="#04367B"/>
<path d="M876.668 893.467C874.535 894.8 872.268 896.133 871.868 896.267C871.335 896.533 871.735 907.733 872.535 921.2C874.135 945.467 874.268 945.733 877.868 948.8C883.201 953.467 895.735 953.333 904.801 948.533C910.401 945.467 911.868 945.2 915.468 946.533C917.735 947.333 921.735 948 924.401 948C930.935 948 934.935 942.267 935.735 932C936.268 925.2 935.868 924.133 931.868 918.8C927.335 912.933 908.135 900.133 903.868 900C901.068 900 899.201 908.667 901.201 911.2C902.268 912.533 901.735 914.667 899.201 919.2C896.535 924 895.868 926.4 896.535 930C897.468 934.533 897.335 934.667 892.935 934.667C890.401 934.667 887.735 933.867 886.935 932.933C885.868 931.6 884.268 910.667 884.001 894.267C884.001 890 882.268 889.867 876.668 893.467ZM913.201 919.867C916.268 921.867 913.868 928 910.135 928C905.735 928 903.468 924.933 905.335 921.467C906.801 918.533 910.001 917.867 913.201 919.867ZM926.135 928.8C928.935 932.933 927.201 935.2 922.135 933.867C918.401 932.933 918.268 932.8 919.468 928.267C920.535 924.4 923.468 924.533 926.135 928.8Z" fill="#04367B"/>
<path d="M974.668 893.6C972.135 895.2 969.868 896.533 969.735 896.667C968.668 897.067 972.001 942.667 973.335 945.467C975.868 950.933 980.001 952 998.801 952C1013.47 952 1017.2 951.6 1022.67 949.2L1029.2 946.4L1033.2 949.2C1036.4 951.467 1039.07 952 1048.27 952C1067.2 952 1072.53 946.4 1072.67 926C1072.67 915.733 1072.27 913.2 1069.47 908.4C1065.87 902 1060.53 899.867 1055.2 902.667C1049.2 906 1045.6 922.667 1050 927.067C1052 929.2 1058.67 931.067 1060.8 930.4C1061.47 930.133 1062.13 930.533 1062.4 931.333C1062.93 933.2 1054 934.8 1045.33 934.4L1038 934L1038.4 929.067C1038.93 923.6 1035.87 916.8 1032.13 914.667C1027.6 912.267 1021.07 913.2 1013.73 917.333L1006.67 921.333V906C1006.67 889.333 1006.13 888.267 999.601 893.333C997.735 894.8 995.601 896 994.801 896C993.868 896 993.601 899.733 994.401 908.267C994.935 915.067 995.335 923.6 995.335 927.333V934L990.268 933.867C987.468 933.733 984.801 933.2 984.268 932.8C983.735 932.267 983.201 922.533 982.935 911.2C982.668 896.533 982.001 890.667 980.935 890.667C980.001 890.667 977.201 892 974.668 893.6ZM1064 914.667C1065.47 917.467 1064.27 918 1058 917.333C1054.53 916.933 1054.4 916.8 1055.47 914.133C1056.67 911.067 1062.27 911.467 1064 914.667ZM1027.2 927.467C1030.4 928.667 1029.73 931.867 1025.87 933.333C1020.67 935.333 1006.27 935.067 1006.93 932.933C1008.27 928.8 1021.33 925.2 1027.2 927.467Z" fill="#04367B"/>
<path d="M1179.6 895.733C1165.73 900.4 1165.2 900.8 1164 905.333C1162 912.4 1162.4 913.733 1167.73 917.867C1170.4 920 1174.13 923.6 1175.87 925.733C1178.53 929.067 1178.8 929.733 1177.2 931.467C1176.13 932.4 1171.6 933.733 1167.07 934.133C1157.87 935.2 1152 932.8 1152 928C1152 923.867 1149.33 923.467 1145.47 927.2C1138.4 934 1121.07 936.667 1107.2 933.2C1100.13 931.333 1096.93 927.467 1097.6 921.067C1097.87 917.733 1097.47 916.667 1095.6 916.267C1090.27 915.2 1087.2 933.2 1091.47 942C1094.4 948.267 1101.07 951.067 1113.87 951.733C1126 952.4 1137.07 950.4 1141.73 946.533L1145.07 944L1149.47 948.133C1153.87 952.267 1154.13 952.267 1165.47 951.733C1173.47 951.333 1178.13 950.533 1180.53 948.8C1191.47 941.733 1192.27 924.4 1182.13 914.267C1180.27 912.4 1178.67 910.267 1178.67 909.6C1178.67 908.933 1182.27 907.333 1186.8 906C1192.93 904.133 1195.2 902.667 1196.13 900.267C1197.87 895.733 1197.6 890.667 1195.73 890.8C1194.8 890.8 1187.6 893.067 1179.6 895.733Z" fill="#04367B"/>
<path d="M1254.8 896.133L1251.87 898.933L1254.8 902.133C1257.6 905.067 1257.87 905.067 1260.8 902.933C1264.53 900.133 1264.8 898.4 1261.6 895.6C1258.53 892.8 1258.4 892.8 1254.8 896.133Z" fill="#04367B"/>
<path d="M646.666 905.067C642.666 909.2 640.532 917.467 641.999 924C642.666 927.2 643.866 928.267 647.999 929.333C650.799 930.133 653.999 930.4 655.066 929.867C656.132 929.467 657.466 929.733 657.866 930.533C658.932 932.267 650.399 934.667 643.066 934.667C635.866 934.667 630.666 932.667 627.066 928.4L623.999 924.933L621.332 928.133C616.932 933.467 616.799 936.533 620.666 942.4C623.599 946.8 623.999 948.267 622.799 950.533C621.332 953.2 607.599 965.2 603.199 967.733C598.932 970.133 602.799 972 612.132 972C620.532 972 621.732 971.6 624.799 968.4C626.532 966.533 629.066 962 630.399 958.4L632.666 952H642.666C653.732 952 659.332 949.6 663.599 943.067C667.066 937.733 667.066 915.867 663.466 909.333C658.666 900.4 652.799 898.933 646.666 905.067ZM657.066 913.6C659.466 916 659.066 916.933 655.199 917.867C650.799 919.067 647.332 916.533 649.466 913.867C651.332 911.6 654.932 911.467 657.066 913.6Z" fill="#04367B"/>
<path d="M1111.33 906.667C1108.93 909.333 1108.93 909.467 1112.53 913.067L1116.13 916.667L1118.67 913.6C1121.73 910 1122.4 910 1126.27 913.6L1129.33 916.4L1132.53 913.467C1136.27 910 1135.87 907.733 1131.33 905.333C1128.4 903.733 1127.73 903.867 1125.33 906.667L1122.67 909.733L1119.6 906.933C1115.73 903.333 1114.4 903.333 1111.33 906.667Z" fill="#04367B"/>
<path d="M1247.33 906.667C1245.07 909.2 1245.07 909.467 1247.33 912C1248.67 913.467 1250.4 914.667 1251.33 914.667C1252.27 914.667 1254 913.467 1255.33 912C1257.6 909.467 1257.6 909.2 1255.33 906.667C1254 905.2 1252.27 904 1251.33 904C1250.4 904 1248.67 905.2 1247.33 906.667Z" fill="#04367B"/>
<path d="M1261.6 907.067L1258.66 910.133L1262.13 913.2C1265.46 916 1265.73 916.133 1268.13 913.867C1271.33 911.067 1271.33 909.067 1268.26 906.267C1265.06 903.333 1265.06 903.467 1261.6 907.067Z" fill="#04367B"/>
<path d="M290.665 911.733C288.799 913.2 285.999 916.667 284.665 919.333C281.999 924.133 281.999 924.267 284.532 926C286.665 927.6 287.332 927.6 288.932 925.867C289.999 924.933 292.932 924 295.465 924C300.932 924 309.865 927.467 308.799 929.2C307.465 931.2 295.065 933.6 285.065 933.867L275.732 934L273.999 928.267C271.999 921.6 269.865 918.8 265.599 917.2C260.932 915.333 256.932 916.933 253.465 922C249.332 928.133 247.599 937.6 249.465 944C251.065 949.333 254.932 952 260.665 952C266.799 952 264.132 955.333 249.999 965.067C245.999 967.867 244.132 970 244.932 970.8C245.599 971.467 250.132 972.133 255.065 972.267C265.732 972.667 268.265 970.8 272.665 959.733L275.465 952.667L284.265 951.867C289.999 951.467 295.332 949.867 299.465 947.733C303.065 945.867 310.799 941.867 316.665 938.8C327.465 933.2 331.732 928.4 331.999 921.867C331.999 919.467 331.065 918.933 325.732 918.267C322.132 917.867 315.865 915.867 311.599 914C300.799 909.067 294.932 908.4 290.665 911.733ZM265.065 929.6C267.999 932.533 266.799 934.667 262.132 934.667C257.065 934.667 255.599 933.333 256.799 930.133C257.732 927.6 262.799 927.333 265.065 929.6Z" fill="#04367B"/>
<path d="M1274.93 918.667C1272.53 921.733 1272.13 923.067 1273.2 925.2C1275.47 929.333 1274.93 933.067 1272 934C1268.13 935.2 1264 932.4 1263.07 927.867C1262 922.533 1256.93 922.8 1256.27 928.4C1255.33 936.133 1245.07 935.867 1243.6 928.133C1242.53 922.8 1237.33 922.133 1237.33 927.333C1237.33 935.6 1223.87 936.933 1217.07 929.333C1215.07 927.2 1213.07 925.333 1212.67 925.333C1212.4 925.333 1210.53 927.733 1208.67 930.667L1205.33 935.867L1209.33 942.133L1213.2 948.4L1210.4 952.4C1208.8 954.533 1203.47 959.333 1198.4 963.067C1193.33 966.8 1189.73 970.267 1190.27 970.8C1191.6 972.133 1206.53 972.667 1210 971.6C1213.2 970.533 1217.33 964.267 1219.47 957.333C1220.8 952.933 1221.33 952.667 1227.47 952C1231.07 951.6 1235.6 950.267 1237.47 948.933C1240.8 946.8 1240.93 946.8 1243.33 949.333C1246.4 952.667 1252 952.8 1256.27 949.467C1259.33 946.933 1259.47 946.933 1262.67 949.467C1266.4 952.267 1272.13 952.667 1276.13 950.667C1283.07 946.933 1286.8 928.267 1282.53 919.333C1280 914.267 1278.53 914.133 1274.93 918.667Z" fill="#04367B"/>
<path d="M386 918.4C377.867 923.6 373.333 931.867 373.333 941.867C373.333 948.267 373.733 948.667 383.2 950C386.533 950.533 389.333 951.467 389.333 952C389.333 954.133 382 956 373.333 956C358 956 354.267 950.267 357.867 932.267C358.933 926.667 358.8 926.4 355.867 926.933C348.8 927.867 344.8 952.4 349.867 962.933C355.867 975.467 379.867 976.933 391.6 965.333C396.533 960.667 400 952.933 400 947.2C400 942.267 396.267 938.8 390 937.867C386.667 937.467 383.6 936.533 383.333 935.867C382.133 934.133 390.133 930.667 395.2 930.667C400.4 930.667 402 928 401.067 920.533C400.667 917.067 400.133 916.667 395.333 916.267C391.867 916.133 388.533 916.8 386 918.4Z" fill="#04367B"/>
<path d="M514.666 917.733C508.666 920.667 503.733 934.933 505.866 943.333C507.066 948.267 511.466 952 515.999 952C518.266 952 519.999 952.533 519.999 953.2C519.999 954.667 509.999 963.467 505.066 966.4C499.199 969.867 500.399 971.733 509.066 972.267C520.533 972.933 522.133 972.4 526.533 965.467C531.333 958 533.333 946.533 531.999 934.933C530.933 926.533 526.266 917.333 523.066 917.333C522.266 917.333 520.799 917.067 519.733 916.667C518.799 916.267 516.533 916.8 514.666 917.733ZM521.866 930.133C524.666 932.933 523.466 934.667 518.666 934.667C514.399 934.667 512.666 932.933 513.866 930C514.799 927.333 519.333 927.467 521.866 930.133Z" fill="#04367B"/>
<path d="M587.066 918.133C581.466 920.933 576.133 929.2 574.266 938C572.4 946.933 573.733 948.8 582.8 950C594.666 951.6 589.333 956 575.333 956C565.066 956 559.066 953.467 557.866 948.533C557.333 946.667 557.333 940.933 557.866 935.867C558.666 927.467 558.533 926.667 556.133 926.667C550.666 926.667 546 949.2 549.333 959.2C552.933 970.133 562.666 974.667 577.2 972.267C590.933 970 599.733 960.8 600 948.533C600 941.867 597.333 939.067 589.6 937.867C586.266 937.333 584.133 936.4 584.4 935.467C585.2 933.067 590.933 930.667 596.133 930.667C600.933 930.667 600.933 930.533 601.866 924.4C602.4 920 602.133 917.867 601.066 917.067C598.266 915.333 591.733 915.867 587.066 918.133Z" fill="#04367B"/>
<path d="M848.398 919.867C842.398 924.267 838.531 931.2 837.598 939.6C836.798 946.933 838.531 948.933 846.798 950C850.398 950.533 853.331 951.333 853.331 951.867C853.331 955.867 833.331 957.467 826.664 954C821.331 951.2 819.331 944.667 821.198 935.867C823.198 926.933 823.064 926.4 819.864 926.933C812.798 928 809.064 954.533 814.664 963.6C821.331 974.667 841.864 976.4 854.264 967.067C862.531 960.667 866.798 945.6 861.731 941.067C860.398 939.867 856.798 938.533 853.731 938C850.398 937.467 847.998 936.4 847.998 935.333C847.998 933.333 853.731 930.933 859.998 930.4C864.398 930 864.664 929.733 865.464 924C866.398 917.067 865.464 916 858.531 916C855.331 916 851.998 917.333 848.398 919.867Z" fill="#04367B"/>
<path d="M179.468 929.333L175.868 934.8L180.001 939.867C182.135 942.8 184.001 946.133 184.001 947.333C184.001 951.2 178.801 957.067 169.868 963.467C165.201 966.8 161.601 970.133 162.134 970.8C162.534 971.467 167.201 972 172.668 972C184.001 972 185.335 971.067 190.135 960.667C194.668 951.2 194.401 941.067 189.601 931.867C187.601 928 185.335 924.667 184.535 924.4C183.735 924.133 181.468 926.4 179.468 929.333Z" fill="#04367B"/>
<path d="M418.131 929.067C414.931 933.733 414.398 938.667 417.198 938.667C417.865 938.667 419.331 940.8 420.665 943.2C423.998 949.467 422.398 952.133 409.865 962.133C404.398 966.4 400.398 970.267 401.065 970.933C401.598 971.467 406.131 972 411.065 972.133C418.131 972.267 420.665 971.867 422.798 969.867C427.598 965.467 431.065 957.067 431.598 948C432.131 940.4 431.731 938.4 428.398 932.133C426.398 928.133 423.998 924.667 423.198 924.4C422.398 924.133 420.131 926.267 418.131 929.067Z" fill="#04367B"/>
<path d="M951.065 928.667C949.332 931.2 947.999 933.867 947.999 934.667C947.999 935.333 949.865 938.667 952.265 942L956.532 948L953.865 951.733C952.265 953.733 947.199 958.267 942.265 962C937.465 965.6 933.465 969.467 933.465 970.267C933.332 971.467 936.132 972 943.332 972C951.865 972 953.599 971.6 956.132 968.933C965.865 958.8 966.799 936.4 957.732 926.4C954.799 923.2 954.532 923.333 951.065 928.667Z" fill="#04367B"/>
<path d="M220.266 960.8C216.666 963.333 216.533 965.6 219.999 968.667C222.533 970.933 222.799 970.933 225.333 968.667C228.666 965.733 228.666 963.733 225.599 960.933C223.466 958.933 222.933 958.933 220.266 960.8Z" fill="#04367B"/>
<path d="M233.332 962C230.266 965.2 230.266 965.333 232.666 968C235.732 971.333 237.599 971.333 240.666 968C243.066 965.333 243.066 965.2 239.866 961.867L236.532 958.533L233.332 962Z" fill="#04367B"/>
<path d="M296.664 962.8C294.664 964.8 294.397 966 295.464 967.6C298.131 971.867 300.931 972.8 303.864 970.133C307.331 967.067 307.331 965.067 304.264 962.267C301.197 959.467 299.997 959.467 296.664 962.8Z" fill="#04367B"/>
<path d="M471.599 962.667C469.732 964.933 469.599 965.867 470.932 968C473.466 972 476.132 972.4 479.466 969.2C482.266 966.533 482.399 966.133 480.399 963.2C477.866 959.333 474.666 959.067 471.599 962.667Z" fill="#04367B"/>
<path d="M226.265 971.733C223.331 974.933 223.465 976.4 226.665 979.333C229.331 981.733 229.465 981.733 232.665 978.667L235.998 975.467L233.065 972.4C229.598 968.667 229.065 968.667 226.265 971.733Z" fill="#04367B"/>
<path d="M197.866 1010.13C181.599 1015.73 183.732 1037.6 200.932 1040.8C207.199 1042 216.799 1037.47 218.932 1032.4C220.799 1027.6 220.666 1020.4 218.666 1016.8C215.332 1010.4 205.732 1007.47 197.866 1010.13ZM209.599 1018.27C212.399 1020.8 212.799 1027.73 210.399 1031.07C209.466 1032.27 207.066 1033.6 205.066 1034C202.266 1034.67 200.666 1034.13 198.132 1031.47C194.132 1027.6 193.732 1023.2 196.799 1018.93C199.199 1015.33 205.999 1014.93 209.599 1018.27Z" fill="#04367B"/>
<path d="M453.333 1009.2C446.8 1010.8 444 1013.73 444 1018.8C444 1024 445.467 1025.2 455.333 1028.27C461.2 1030.13 462.533 1033.73 457.6 1034.4C455.867 1034.67 452.667 1034.27 450.4 1033.47C446.133 1032 444.133 1033.07 444 1036.93C444 1039.2 454 1041.73 459.067 1040.67C466.4 1039.07 469.333 1036.4 469.333 1031.47C469.333 1026 467.333 1024.27 459.067 1022.13C455.067 1021.07 452.533 1019.73 452.267 1018.27C451.733 1015.47 456.933 1014.13 461.733 1015.87C464.8 1017.07 465.467 1016.8 466.8 1014.4C468.4 1011.33 466.667 1009.33 462.4 1009.33C461.2 1009.33 459.467 1009.07 458.4 1008.8C457.467 1008.53 455.2 1008.67 453.333 1009.2Z" fill="#04367B"/>
<path d="M163.599 1010.13C163.066 1010.67 162.666 1012.27 162.666 1013.6C162.666 1015.47 163.733 1016 167.999 1016H173.333V1024.67C173.333 1034.27 171.466 1036.67 166.399 1033.47C164.399 1032.27 163.333 1032.27 161.866 1033.47C159.066 1035.73 159.599 1037.07 164.133 1039.47C169.199 1042 175.999 1041.07 179.466 1037.2C181.466 1035.07 181.866 1032.27 181.999 1022.27V1010L173.333 1009.6C168.533 1009.33 164.133 1009.6 163.599 1010.13Z" fill="#04367B"/>
<path d="M231.864 1011.6C220.531 1018.53 221.998 1033.6 234.398 1039.2C247.998 1045.33 261.998 1033.47 257.464 1019.6C254.398 1010.53 240.531 1006.27 231.864 1011.6ZM247.198 1018C250.264 1021.2 250.931 1024.93 249.064 1028.93C247.464 1032.13 246.531 1032.67 241.331 1032.67C236.131 1032.67 235.198 1032.13 233.731 1029.07C231.864 1025.33 233.331 1019.07 236.398 1017.07C239.064 1015.33 245.064 1015.87 247.198 1018Z" fill="#04367B"/>
<path d="M263.999 1023.33C263.999 1031.07 263.866 1037.73 263.732 1038.27C263.466 1038.93 265.332 1039.47 267.732 1039.73C271.732 1040.13 271.999 1039.87 271.999 1036.13C271.999 1032.27 272.399 1032 276.666 1032C282.266 1032 288.666 1029.07 289.866 1026C290.266 1024.8 290.666 1022.4 290.666 1020.67C290.666 1012.53 285.466 1009.33 272.666 1009.33H263.999V1023.33ZM281.066 1017.6C284.932 1021.47 282.132 1025.33 275.199 1025.33C272.399 1025.33 271.999 1024.67 271.999 1020.67C271.999 1016.4 272.399 1016 275.732 1016C277.732 1016 280.132 1016.67 281.066 1017.6Z" fill="#04367B"/>
<path d="M303.599 1015.6C300.665 1021.33 293.332 1038.53 293.332 1039.6C293.332 1039.87 295.065 1040 297.199 1040C299.999 1040 301.465 1039.2 301.999 1037.33C302.665 1035.07 303.999 1034.67 309.865 1034.67C315.599 1034.67 317.332 1035.2 318.799 1037.47C320.132 1039.33 321.732 1040.13 324.265 1039.73L327.865 1039.33L321.332 1024.67C315.199 1011.07 314.399 1010 310.799 1009.6C307.199 1009.2 306.399 1009.87 303.599 1015.6ZM313.332 1025.6C313.332 1027.33 312.265 1028 309.999 1028C306.265 1028 305.999 1026.93 308.265 1022C309.732 1018.67 309.999 1018.53 311.599 1020.8C312.532 1022.13 313.332 1024.27 313.332 1025.6Z" fill="#04367B"/>
<path d="M330.664 1024.8V1040.13L335.064 1039.73C337.331 1039.47 339.464 1038.53 339.464 1037.6C339.597 1036.8 339.731 1035.07 339.864 1034C340.131 1030.67 344.531 1031.73 347.331 1036C349.464 1039.07 350.931 1040 354.397 1040H358.797L356.131 1036.13C352.664 1031.33 352.664 1031.2 355.997 1027.73C358.664 1024.8 359.597 1018 357.597 1015.2C354.664 1011.07 349.731 1009.33 340.397 1009.33H330.664V1024.8ZM349.731 1018.93C351.864 1022.13 348.531 1025.33 343.197 1025.33C339.064 1025.33 338.664 1024.93 338.664 1021.6C338.664 1019.47 339.064 1017.33 339.597 1016.8C341.331 1015.2 348.397 1016.53 349.731 1018.93Z" fill="#04367B"/>
<path d="M378.399 1010.13C377.732 1010.67 377.332 1017.6 377.332 1025.6V1040H381.332C384.932 1040 385.332 1039.6 385.332 1036C385.332 1032.13 385.599 1032 391.465 1032C403.065 1032 409.599 1020.4 401.865 1013.2C399.065 1010.67 396.799 1010 388.932 1009.6C383.599 1009.33 378.932 1009.6 378.399 1010.13ZM396.132 1018.13C398.799 1021.33 395.999 1024.53 390.132 1025.07C385.465 1025.47 385.332 1025.33 385.332 1020.8C385.332 1016.27 385.599 1016 389.865 1016C392.265 1016 395.065 1016.93 396.132 1018.13Z" fill="#04367B"/>
<path d="M418.934 1012.27C418.134 1014 415.067 1020.93 412.134 1027.6L406.801 1040H411.201C414.534 1040 415.867 1039.33 416.401 1037.33C416.934 1035.07 418.267 1034.67 424.401 1034.67C430.667 1034.67 432.001 1035.07 432.667 1037.33C433.201 1039.2 434.667 1040 437.467 1040C442.267 1040 442.267 1039.87 434.134 1021.73C428.934 1010 428.401 1009.33 424.534 1009.33C421.601 1009.33 420.001 1010.13 418.934 1012.27ZM426.667 1022.53C428.801 1026.67 428.267 1028 424.667 1028C421.067 1028 420.934 1027.6 422.134 1022.93C423.201 1019.33 424.801 1019.2 426.667 1022.53Z" fill="#04367B"/>
<path d="M475.333 1012.67C473.467 1014.4 472 1017.07 472 1018.67C472 1022.13 476.267 1026.4 480.933 1027.33C486.667 1028.67 490.667 1030.53 490.667 1032C490.667 1034.13 484 1035.07 478.933 1033.6C474.267 1032.13 472.133 1032.93 472 1036.4C472 1038 480.667 1041.33 484.667 1041.33C489.733 1041.33 495.867 1037.73 497.333 1033.87C499.467 1028.53 496.667 1024.53 489.467 1022.53C486.133 1021.73 482.533 1020.27 481.6 1019.47C478.533 1017.2 483.6 1014.53 489.6 1015.47C493.6 1016.13 494.8 1015.87 495.467 1014C496.8 1010.8 493.867 1009.33 485.6 1009.33C479.867 1009.33 477.867 1010 475.333 1012.67Z" fill="#04367B"/>
<path d="M502.664 1024.67V1040H514.797C526.531 1040 526.797 1039.87 526.397 1036.93C525.997 1034.4 525.064 1034 518.397 1033.6C511.731 1033.2 510.664 1032.8 510.664 1030.67C510.664 1028.4 511.597 1028 517.197 1028C524.131 1028 525.864 1026.93 524.531 1023.47C523.997 1021.87 521.864 1021.33 517.197 1021.33C511.597 1021.33 510.664 1020.93 510.664 1018.67C510.664 1016.53 511.731 1016.13 518.397 1015.73C525.064 1015.33 525.997 1014.93 526.397 1012.27C526.797 1009.47 526.531 1009.33 514.797 1009.33H502.664V1024.67Z" fill="#04367B"/>
<path d="M532.665 1010.93C532.265 1011.87 532.132 1018.67 532.265 1026L532.665 1039.33L536.398 1039.73C539.865 1040.13 539.998 1040 539.998 1033.47C539.998 1029.87 540.532 1026.53 541.198 1026.13C541.865 1025.73 545.198 1028.67 548.665 1032.67C553.065 1037.73 555.865 1040 558.132 1040C561.332 1040 561.332 1040 561.332 1024.67V1009.33H557.332C553.332 1009.33 553.332 1009.47 553.332 1016.67C553.332 1020.67 552.798 1024 552.132 1024C551.465 1024 549.332 1021.73 547.198 1018.93C545.065 1016.27 542.532 1012.93 541.332 1011.6C539.065 1008.93 533.598 1008.53 532.665 1010.93Z" fill="#04367B"/>
<path d="M573.064 1012.4C568.531 1016.27 566.664 1020.13 566.664 1025.87C566.664 1034.93 577.331 1042.67 587.064 1040.67C595.064 1038.93 596.797 1037.07 596.264 1030.13C595.731 1024.67 595.331 1024 592.531 1024C589.731 1024 589.331 1024.67 589.331 1028.53C589.331 1032.27 588.797 1033.07 585.997 1033.6C578.264 1035.2 572.664 1027.73 576.131 1020.53C577.597 1017.47 579.064 1016.53 583.064 1016.27C585.864 1016 589.064 1016.53 590.131 1017.47C591.597 1018.67 592.531 1018.53 594.664 1016.67C597.331 1014.27 597.331 1014.13 593.731 1011.73C588.264 1008.27 577.731 1008.53 573.064 1012.4Z" fill="#04367B"/>
<path d="M602.664 1024.67V1040H614.797C626.531 1040 626.797 1039.87 626.397 1036.93C625.997 1034.27 625.197 1034 618.664 1034C612.131 1034 611.331 1033.73 610.931 1030.93C610.531 1028.27 610.931 1028 617.197 1028C623.597 1028 623.997 1027.73 623.997 1024.67C623.997 1021.6 623.597 1021.33 617.331 1021.33C611.597 1021.33 610.664 1020.93 610.664 1018.67C610.664 1016.53 611.731 1016.13 618.397 1015.73C624.931 1015.33 625.997 1014.93 625.997 1012.67C625.997 1010.27 624.931 1010 614.397 1009.6L602.664 1009.2V1024.67Z" fill="#04367B"/>
<path d="M632 1024.67V1040H636C639.6 1040 640 1039.6 640 1036C640 1030.4 644.933 1030.4 648.667 1036C650.8 1039.07 652.267 1040 655.733 1040H660.133L657.467 1036.13C654 1031.33 654 1031.47 657.467 1026.67C659.733 1023.73 660.133 1021.87 659.467 1018.27C658.267 1012 652.667 1009.33 640.8 1009.33H632V1024.67ZM650 1020.67C650 1024.27 649.6 1024.67 645.067 1025.07C640 1025.47 640 1025.47 640 1020.67C640 1015.87 640 1015.87 645.067 1016.27C649.6 1016.67 650 1017.07 650 1020.67Z" fill="#04367B"/>
<path d="M687.333 1013.47C684.933 1018.13 676 1038.53 676 1039.47C676 1039.73 677.733 1040 679.867 1040C682.667 1040 684.133 1039.2 684.667 1037.33C685.333 1035.07 686.667 1034.67 692.933 1034.67C699.067 1034.67 700.4 1035.07 700.933 1037.33C701.467 1039.2 702.8 1040 705.6 1040C710.533 1040 710.4 1038.93 702.933 1022C698.133 1010.93 697.333 1010 693.6 1009.6C690.133 1009.2 689.2 1009.87 687.333 1013.47ZM695.333 1024.27C696.133 1027.6 696 1028 692.8 1028C688.933 1028 688.667 1027.07 690.933 1022C692.667 1018.13 694 1018.93 695.333 1024.27Z" fill="#04367B"/>
<path d="M714.265 1010.27C713.732 1010.67 713.332 1017.6 713.332 1025.6V1040H717.332C721.199 1040 721.332 1039.87 721.332 1033.47C721.332 1029.73 721.865 1026.53 722.532 1026.13C723.199 1025.73 726.532 1028.67 729.999 1032.67C734.399 1037.73 737.199 1040 739.465 1040C742.665 1040 742.665 1040 742.665 1024.67V1009.33H738.665C734.665 1009.33 734.665 1009.47 734.665 1016.67C734.665 1020.67 734.132 1024 733.465 1024C732.799 1024 730.665 1021.73 728.532 1018.93C721.999 1010.27 717.065 1007.33 714.265 1010.27Z" fill="#04367B"/>
<path d="M749.332 1024.67V1040H759.332C770.932 1040 776.265 1037.87 779.332 1032C781.865 1027.07 781.865 1022.27 779.332 1017.47C776.532 1012 769.865 1009.33 758.799 1009.33H749.332V1024.67ZM768.799 1017.07C771.599 1018.8 773.332 1024 772.532 1027.33C771.465 1031.47 768.265 1033.33 762.132 1033.33H757.332V1024.67V1016H762.399C765.065 1016 767.999 1016.53 768.799 1017.07Z" fill="#04367B"/>
<path d="M800 1024.67V1040H803.867C807.467 1040 807.867 1039.6 808.267 1034.93C808.667 1030 808.667 1030 815.333 1029.33C820.933 1028.8 822 1028.27 822 1026C822 1023.73 820.933 1023.33 815.067 1022.93C808.667 1022.53 808 1022.27 808 1019.33C808 1016.4 808.533 1016.13 815.733 1015.73C822.4 1015.33 823.333 1014.93 823.733 1012.27C824.133 1009.47 823.867 1009.33 812.133 1009.33H800V1024.67Z" fill="#04367B"/>
<path d="M828.933 1010.27C828.4 1010.67 828 1017.6 828 1025.6V1040.13L832.4 1039.73C836 1039.47 836.8 1038.67 837.067 1035.6C837.6 1030.8 841.2 1030.93 844.667 1036C846.667 1039.07 848.4 1040 851.6 1040H855.867L853.2 1035.33C850.667 1031.07 850.667 1030.53 852.533 1028.53C858 1023.07 856.667 1014 850 1011.2C845.333 1009.33 830.533 1008.53 828.933 1010.27ZM846.8 1018.13C849.467 1021.33 846.667 1024.67 841.2 1024.67C837.333 1024.67 836.667 1024.27 836.533 1021.33C836.533 1019.47 836.667 1017.6 836.933 1016.93C837.867 1015.2 844.933 1016 846.8 1018.13Z" fill="#04367B"/>
<path d="M861.332 1024.67V1040H873.199C881.865 1040 885.199 1039.47 885.732 1038.27C887.065 1034.67 884.532 1033.33 877.332 1033.73C870.665 1034 869.999 1033.73 869.599 1030.93C869.199 1028.27 869.599 1028 875.865 1028C882.799 1028 884.532 1026.93 883.199 1023.47C882.665 1021.87 880.532 1021.33 875.865 1021.33C870.265 1021.33 869.332 1020.93 869.332 1018.67C869.332 1016.27 870.265 1016 877.332 1016C884.932 1016 885.332 1015.87 885.332 1012.67C885.332 1009.33 885.199 1009.33 873.332 1009.33H861.332V1024.67Z" fill="#04367B"/>
<path d="M891.597 1010.27C891.064 1010.67 890.664 1017.6 890.664 1025.6V1040.13L895.064 1039.73C898.131 1039.47 899.331 1038.67 899.197 1036.93C899.064 1035.73 898.931 1028.93 898.797 1022C898.664 1009.6 898.531 1009.33 895.597 1009.33C893.864 1009.33 891.997 1009.73 891.597 1010.27Z" fill="#04367B"/>
<path d="M911.067 1012.13C906.267 1015.2 904.934 1018.13 904.934 1025.6C904.934 1038.4 920.134 1045.47 931.467 1038C934 1036.4 934.667 1034.8 934.667 1030C934.667 1024.27 934.534 1024 930.667 1024C927.067 1024 926.667 1024.4 926.667 1028.53C926.667 1034 922.934 1035.6 917.334 1032.67C911.467 1029.6 911.067 1020.67 916.534 1017.07C918.667 1015.6 925.867 1015.73 927.467 1017.33C928.534 1018.4 929.867 1018 932 1016.27L935.2 1013.73L930.934 1011.47C925.2 1008.53 916.267 1008.8 911.067 1012.13Z" fill="#04367B"/>
<path d="M940 1024.67V1040H943.867C947.6 1040 947.867 1039.6 948.267 1034.27L948.667 1028.67H954.667H960.667L961.067 1034.27C961.467 1039.6 961.733 1040 965.467 1040H969.333V1024.67V1009.33H965.467C961.733 1009.33 961.467 1009.73 961.067 1014.93L960.667 1020.67H954.667H948.667L948.267 1014.93C947.867 1009.73 947.6 1009.33 943.867 1009.33H940V1024.67Z" fill="#04367B"/>
<path d="M973.332 1012.67C973.332 1015.6 973.865 1016 977.999 1016H982.665V1028V1040H986.665H990.665V1028V1016H995.332C999.465 1016 999.999 1015.6 999.999 1012.67V1009.33H986.665H973.332V1012.67Z" fill="#04367B"/>
<path d="M1014.66 1012.67C1014.66 1015.6 1015.2 1016 1019.33 1016H1024V1028.13V1040.13L1028.4 1039.73L1032.66 1039.33L1032.93 1028L1033.06 1016.67L1038 1016.27C1042.13 1015.87 1042.8 1015.33 1042.4 1012.93C1042 1010.13 1041.2 1010 1028.4 1009.6L1014.66 1009.2V1012.67Z" fill="#04367B"/>
<path d="M1045.33 1024.67V1040H1050C1053.07 1040 1054.67 1039.33 1054.53 1038.27C1053.6 1030.93 1058.13 1029.73 1062.67 1036C1064.67 1038.93 1066.67 1040 1069.47 1040H1073.33L1070.67 1035.73C1068.13 1031.6 1068.13 1031.47 1070.8 1028.27C1074.53 1023.47 1074.13 1016.8 1069.73 1012.67C1066.4 1009.73 1064.93 1009.33 1055.73 1009.33H1045.33V1024.67ZM1064.67 1018.67C1065.87 1022.53 1063.07 1025.33 1058.13 1025.33C1054 1025.33 1053.87 1025.2 1054.4 1020.67C1054.93 1016.4 1055.33 1016 1059.33 1016C1062.67 1016 1064 1016.67 1064.67 1018.67Z" fill="#04367B"/>
<path d="M1082.4 1023.73C1078.8 1031.73 1076 1038.67 1076 1039.2C1076 1039.6 1077.73 1040 1079.87 1040C1082.67 1040 1084.13 1039.2 1084.67 1037.33C1085.33 1035.07 1086.67 1034.67 1092.93 1034.67C1099.07 1034.67 1100.4 1035.07 1100.93 1037.33C1101.47 1039.33 1102.8 1040 1106.13 1040C1111.33 1040 1111.6 1041.47 1102.8 1022C1097.73 1010.67 1097.2 1010 1093.07 1009.6C1088.67 1009.2 1088.67 1009.33 1082.4 1023.73ZM1095.33 1024.27C1096.13 1027.6 1096 1028 1092.8 1028C1088.93 1028 1088.67 1027.07 1090.93 1022C1092.67 1018.13 1094 1018.93 1095.33 1024.27Z" fill="#04367B"/>
<path d="M1113.33 1024.67V1040.13L1117.47 1039.73L1121.73 1039.33L1121.6 1024.67L1121.47 1010L1117.47 1009.6L1113.33 1009.2V1024.67Z" fill="#04367B"/>
<path d="M1128.53 1011.07C1128.27 1012 1128.13 1018.8 1128.27 1026.13L1128.67 1039.33L1132.4 1039.73C1135.87 1040.13 1136 1040 1136 1033.47C1136 1029.87 1136.53 1026.53 1137.2 1026.13C1137.87 1025.73 1141.2 1028.67 1144.67 1032.67C1149.07 1037.87 1151.87 1040 1154.13 1040H1157.33V1024.53V1009.2L1153.73 1009.6C1150.27 1010 1150 1010.53 1149.6 1016.93C1149.33 1020.8 1148.67 1024 1148.13 1024C1147.6 1024 1144.4 1020.67 1141.2 1016.67C1135.33 1009.33 1130.13 1007.07 1128.53 1011.07Z" fill="#04367B"/>
<path d="M1166.13 1012.13C1162 1015.33 1161.47 1021.2 1165.07 1024.27C1166.27 1025.33 1170.13 1027.07 1173.73 1028C1180.13 1029.73 1182 1032.67 1177.73 1034.27C1176.53 1034.67 1173.33 1034.53 1170.53 1033.73C1167.07 1032.8 1165.07 1032.8 1164 1033.87C1161.33 1036.53 1162.67 1038.27 1168.53 1040C1179.07 1042.93 1188 1038.67 1188 1030.67C1188 1026 1186.13 1024.53 1177.47 1021.87C1167.07 1018.8 1169.07 1013.73 1179.87 1015.47C1184 1016.13 1185.07 1015.87 1185.87 1013.87C1187.07 1010.67 1184.53 1009.33 1176.53 1009.33C1171.6 1009.33 1168.67 1010.13 1166.13 1012.13Z" fill="#04367B"/>
<path d="M1213.86 1010.67C1205.6 1014 1202.53 1026.8 1208.26 1034C1211.33 1038 1218.13 1041.33 1222.93 1041.33C1224.66 1041.33 1228 1040.13 1230.53 1038.53C1234.8 1036 1234.8 1035.73 1232.66 1033.33C1230.53 1031.07 1230 1030.93 1226.66 1032.67C1217.46 1037.47 1209.33 1027.6 1215.46 1018.93C1217.6 1015.73 1223.6 1014.93 1227.86 1017.33C1229.73 1018.27 1230.93 1018 1232.53 1016.13C1234.66 1013.87 1234.53 1013.6 1231.46 1011.47C1227.86 1009.2 1218.53 1008.8 1213.86 1010.67Z" fill="#04367B"/>
<path d="M1245.06 1011.73C1239.86 1014.8 1236.8 1021.73 1238 1027.6C1239.73 1037.2 1251.46 1043.47 1260.93 1039.87C1266.8 1037.6 1272 1030.67 1272 1025.07C1272 1019.6 1268.66 1013.73 1264 1011.33C1258.93 1008.67 1249.6 1008.8 1245.06 1011.73ZM1261.33 1018.67C1266.8 1024.13 1263.06 1033.33 1255.33 1033.33C1249.6 1033.33 1246.66 1030.4 1246.66 1024.67C1246.66 1022.27 1247.6 1019.2 1248.8 1018.13C1251.73 1015.2 1258.13 1015.47 1261.33 1018.67Z" fill="#04367B"/>
<path d="M1276.53 1032.93C1274.27 1035.2 1274.53 1037.2 1277.6 1039.07C1280.67 1041.07 1284 1039.2 1284 1035.47C1284 1031.6 1279.47 1030 1276.53 1032.93Z" fill="#04367B"/>
</svg>
